<svg width="284.051" height="198.425" xmlns="http://www.w3.org/2000/svg"><path d="M238.17 90.397h37.63c6.224-.269 9.45 2.486 7.84 8.807l-8.563 34.746c-1.827 6.878-5.68 8.958-12.728 8.706h-33.79c-16.63 34.1-51.222 55.77-89.208 55.77-52.31 0-95.687-40.698-99.002-92.818H5.439l-.078-.015c-3.94-.728-5.9-2.836-5.233-6.912l.006-.034 9.495-38.533c1.131-4.724 3.78-6.487 8.56-6.764h33.176C68.48 20.566 102.329 0 139.35 0c51.364 0 94.323 39.304 98.82 90.397z" fill="#1b1918" fill-rule="evenodd"/><path d="M139.351 3.12c51.15 0 92.971 39.986 95.92 90.397h46.557l-11.34 46.019h-43.9c-15.248 32.922-48.576 55.77-87.237 55.77-21.922 0-42.131-7.346-58.3-19.71-22.158-16.943-36.731-43.31-37.73-73.108H2.4l11.34-46.019h39.537C69.01 24.852 101.645 3.12 139.35 3.12z" fill="#8bb7e8" fill-rule="evenodd"/><path d="M241.018 93.513v.015h40.922l-11.34 46.019h-39.537l-.058.113h-28.446V93.513z" fill="#009ee0" fill-rule="evenodd"/><path d="M241.669 92.374v.015h33.569c7.476-.464 7.48 3.307 6.203 7.473l-2.008 8.154h-76.874V92.374z" fill="#fff" fill-rule="evenodd" stroke="#1b1918" stroke-width="1.984"/><path d="M275.105 125.546l-2.296 9.378c-1.052 5.132-4.388 5.667-8.438 5.667-20.776.003-41.42.017-62.202.017v-15.061z" fill="#e30016" fill-rule="evenodd" stroke="#1b1918" stroke-width="1.984"/><path d="M43.321 102.503v-.015H2.4l11.34-46.019h39.537l.057-.113H81.78v46.147z" fill="#009ee0" fill-rule="evenodd"/><path d="M42.51 103.922v-.015H6.992c-4.254-.034-5.753-1.743-4.795-5.125L4.78 88.293h76.805v15.629z" fill="#e30016" fill-rule="evenodd" stroke="#1b1918" stroke-width="1.984"/><path d="M9.178 70.226l2.35-9.533c1.124-4.091 3.17-5.394 6.747-5.397 21.297-.016 42.452-.113 63.749-.113v15.043z" fill="#fff" fill-rule="evenodd" stroke="#1b1918" stroke-width="1.984"/><path d="M139.578 22.738a76.413 76.413 0 0176.413 76.413 76.413 76.413 0 11-76.413-76.412z" fill="#004393" fill-rule="evenodd" stroke="#1b1918" stroke-width="2.275"/><path d="M139.429 22.743V175.54" fill="none" stroke="#1b1918" stroke-width="1.997"/><path d="M139.516 25.513a20.524 9.41 0 0120.524 9.41 20.524 9.41 0 11-20.524-9.41z" fill="none" stroke="#1b1918" stroke-width="1.984"/><path d="M138.957 22.683c20.512 0 37.147 8.224 37.147 18.365 0 10.14-16.635 18.365-37.147 18.365-20.512 0-37.147-8.224-37.147-18.365 0-10.141 16.635-18.365 37.147-18.365z" fill="none" stroke="#1b1918" stroke-width="1.984"/><path d="M188.433 40.073c2.23 3.41 3.378 7.03 3.378 10.67 0 16.833-23.92 30.483-53.414 30.483s-53.413-13.65-53.413-30.483c0-1.82.286-3.64.854-5.43" fill="#6e7071" fill-rule="evenodd" stroke="#1b1918" stroke-width="1.984"/><path d="M204.092 57.873c.016.415.024.84.024 1.26 0 24.348-29.43 44.094-65.719 44.094-34.323 0-62.878-17.728-65.526-40.686" fill="#008981" fill-rule="evenodd" stroke="#1b1918" stroke-width="1.984"/><path d="M214.03 80.565c-10.157 25.271-40.858 42.533-75.633 42.533-32.478 0-61.682-15.111-73.575-38.066" fill="none" stroke="#1b1918" stroke-width="1.965"/><path d="M214.428 109.656c-17.802 19.494-46.045 31.007-76.031 31.007-28.716 0-55.91-10.563-73.827-28.686" fill="none" stroke="#1b1918" stroke-width="1.984"/><path d="M204.534 137.741c-19.179 11.274-42.346 17.388-66.138 17.388-22.64 0-44.79-5.545-63.467-15.868m111.421 19.885c-15.204 5.013-31.501 7.606-47.954 7.606-14.967 0-29.842-2.15-43.882-6.329" fill="none" stroke="#1b1918" stroke-width="1.984"/><path d="M139.429 32.397S110.976 41.72 95.9 70.25c-15.075 28.529-15.782 97.964 43.677 105.492m.15-143.345s28.453 9.324 43.528 37.853c15.075 28.529 15.781 97.964-43.677 105.492" fill="none" stroke="#1b1918" stroke-width="1.984"/><path d="M139.648 32.397s14.86 11.044 19.987 38.145c5.127 27.102 8.017 97.547-20.058 105.2m-.07-143.345s-14.86 11.044-19.987 38.145c-5.128 27.102-8.017 97.547 20.057 105.2" fill="none" stroke="#1b1918" stroke-width="1.984"/><path d="M139.384 32.397c-.617-.207-30.01-3.03-55.087 28.196-25.076 31.226-26.929 105.97 55.28 115.149m.193-143.345c.618-.207 30.011-3.03 55.087 28.196 25.076 31.226 26.93 105.97-55.28 115.149" fill="none" stroke="#1b1918" stroke-width="1.98"/><path d="M139.26 32.104s13.168-7.609 33.945-1.17m-33.361 1.463s-13.168-7.609-33.945-1.171m33.945 1.171s4.683-7.024 13.169-8.194m-13.169 8.194s-4.682-7.024-13.168-8.194" fill="none" stroke="#1b1918" stroke-width="1.984"/><path d="M88.11 81.927s-1.543 2.646-3.748 3.528c-2.205.883-6.395 3.088-7.498 4.852-1.103 1.764-1.323 2.646-1.544 4.19-.22 1.544-1.323 6.395-1.323 6.395s1.985 10.806 2.867 13.673c.882 2.866 2.205 2.866 3.308 3.087 1.103.22 1.544 1.544 3.528 1.985 1.985.44 1.544-.22 3.97 0 2.425.22 3.749.661 3.97 1.984.22 1.323 0 .662 1.984 2.206 1.985 1.543 3.528.22 2.205 2.425-1.323 2.206-.882 6.837 1.323 9.483 2.205 2.646 2.647 5.513 2.647 6.836v4.41s-3.323 1.558-1.559 3.764c3.006 3.758 11.68 14.631 15.672 15.202 1.544.22 2.426.22 3.749.22s3.97-1.102 3.97-1.102 3.528.882 3.087-1.985c-.441-2.867-1.985-3.308-.441-2.867 5.85 1.671.46-2.295 3.749-3.528 1.764-.662 4.851-2.206 5.072-3.97.22-1.764.882-2.426-.441-5.292-1.324-2.867-1.985-2.426-1.324-4.19.662-1.765 5.072-3.75 8.38-7.057 3.308-3.308 5.072-5.513 5.734-7.277.662-1.765.882-4.631.882-4.631s-3.749 1.984-6.616.44c-2.866-1.543-3.087-3.307-3.087-3.307s-4.41-2.647-4.852-4.852c-.44-2.205.221-2.425-.882-4.19-1.102-1.764-.882-.882-1.543-3.087-.662-2.205-1.544-5.072-2.206-7.057-.661-1.984-1.323-1.543-2.425-3.087-1.103-1.544-.441-1.985-2.426-2.867-1.985-.882-4.19-1.103-5.513-2.205-1.323-1.103-.882-2.205-2.646-2.205-1.765 0-1.544-1.544-2.647.661-1.102 2.205-3.308 1.103-3.308 1.103s-.882-1.764-1.984-2.646c-3.96-3.169-.15-6.23-2.426-6.837-3.308-.882-6.395-1.764-6.395-1.764s-.662-.882-2.205-.661c-1.544.22-3.529-.441-3.529-.441s-2.646-1.765-3.528.661z" fill="#008981" fill-rule="evenodd" stroke="#1b1918" stroke-width="1.997"/><path d="M94.957 70.077c-1.373.634-.915 3.051-2.524 3.587-1.932.644-1.735 5.916-.911 6.492.78.544 1.111 2.482 4.608 1.752 1.043-.218.864-1.607 3.382-3.292 3.812-2.55 10.38-3.84 17.89 2.623 3.734 3.215.972 8.236 6.917 8.236.465 0 2.325.996 2.325.996-1.58 2.26 2.623 3.26-.934 6.678-2.35 2.258 1.174 2.672 1.393 2.098.198-.519.222.555.998 1.888.777 1.333 1.22 2.333 1.997 4.221.777 1.888 1.997 3.554 2.22 4.332.221.778.332 1.222 1.663 2.221 1.331 1-.11-.222 1.331 2.11 1.443 2.334 2.108 3.222 2.108 4.555 0 1.333-.887 2.332.444 2.666 1.331.333 3.661.222 4.105-.444.443-.667 4.881-1.778 6.323-3.444 1.442-1.666.222-2.11 1.997-2.221 1.775-.111 1.886.888 2.995-.222 1.11-1.111.888-1.333 1.443-2.11.554-.778.332-.445 1.33-1.445 1-1 1.443-1.333 1.443-1.888 0-.555.555-.667-.333-1.333-.887-.667-1.553-.889-1.553-.889s-.222-.777-.998-1.11c-.777-.334-1.22-.333-1.332-1-.11-.667-.332-1.11-.332-1.11s-1.22.888-1.886 1.554c-.666.667-.83 2.55-2.108 1.444-11.156-9.645 7.312-2.359 11.537-3.443 1.559-.4 3.036-.183 4.858-.3 5.094 2.827 6.064 1.341 6.927 1.873.864.531.133 1.129.067 1.926-.067.797.863 3.654 1.66 4.916.797 1.262 1.329 2.259 1.661 2.856.332.598.465.665.531 1.329.067.664.532 1.13 1.063 1.594.532.465.731.665.93 1.462.2.797.93 2.125 1.462 2.192.531.066.266-.465.73-1.395.466-.93 1.728-1.993 1.794-3.654.067-1.66.067-2.79.067-3.52 0-.731-.399-1.528.332-2.26.73-.73 2.458-3.786 2.923-5.048.465-1.262.597-1.262 1.195-1.86.622-.621.51-2.142 1.3-2.97 3.561-3.73 2.542-2.041 5.38-.906 2.627 1.05 1.447 5.271 2.155 5.271 8.04 0 2.241-8.587 6.71-4.118.863.863-.042 3.964-.042 3.964.037 4.71 6.069 2.321 4.426-2.835-.484-1.519-.046-2.787-.997-4.185-4.192-6.168-1.406-6.6.665-12.09.478-1.267.398-4.251-.266-6.576-.664-2.325-1.196-4.783-1.66-5.713-.466-.93-2.99-3.521-3.72-4.185-.731-.665-.865-1.196-.93-1.86-.312-3.12-.405-9.668-4.167-12.144 0-5.744-10.647-13.564-10.714-12.7-.066.863-.332 1.86-.332 1.86s-1.594-.067-2.723-1.263c-1.13-1.195-2.724-2.723-3.255-3.653-4.63-8.101 4.438-2.09 4.123-2.865-2.465-6.056-24.716-12.108-24.716-11.643 0 .464 1.328 3.68 2.657 4.211 1.328.532 2.192.93 2.325 1.262.883 2.209-1.262 5.292-1.66 7.374-.637 3.317-3.322 2.217-3.522 1.461-.742-2.815-5.434.431-4.65 2.658 1.098 3.115.03 1.54-.73 2.787-.155.254 3.821 4.844-2.99 5.184-.686.034-2.008-1.803-2.116-1.332-.707 3.064-4.636 2.521-8.313 4.853-1.224.776-3.73 1.014-2.8-1.565.556-1.543-1.717-1.557-2.381-2.022-.665-.465.066-.133-.665-.864-.73-.73-.598-.996-3.055-.864-2.458.133-3.787.532-4.451 1.462-.665.93-2.857 2.79-4.318 3.321-1.462.532-3.056.399-3.587.73-3.982 2.49-1.798 3.149-.642 5.215 6.234 11.15-3.45-1.476-7.994 5.016-.465.664-1.329 1.262-1.86 1.329-2.238.28-5.26 10.384-8.038 7.838-.797-.73-.2.133-1.13-.996-.778-.946-1.744-2.205-3.055-2.06zM108.62 29.64a75.73 75.73 0 0129.232-6.547c.074.616-1.952.808-2.329 1.94-.376 1.13-1.876 2.22-3.199 2.22-2.755 0-.693 1.079-.114 2.528.441 1.102-3.652 2.1-3.652 2.1-3.229-.358-7.064-2.71-1.415.428 1.985 1.103 1.985 1.985 1.985 1.985l-.882 1.985s-1.323.882-3.087 1.323c-1.764.44-1.103 0-2.205 0-1.103 0-2.867 1.764-6.396 2.867-3.528 1.102-8.6-.22-10.364-.22-3.345 0-5.088 2.469-1.985-1.324 0 0 .662-2.646 6.395-3.308 5.734-.661 12.129-4.63 12.79-5.954.662-1.323 1.995-4.329 3.098-5.432.511-.511-2.753 3.805-3.063 5.356-.22 1.103-1.773 1.56-1.773 1.56l-8.626 1.162-6.616 1.544zm32.858 122.414c-3.088 1.102-3.308-1.544-3.75 1.102-.44 2.646.442 2.867.442 4.19 0 1.323-1.323.441-1.323 2.426s1.543 3.97 3.748 1.764c2.206-2.205 5.077-6.616 5.077-8.16 0-6.41.183-2.886-4.194-1.322z" fill="#008981" fill-rule="evenodd" stroke="#1b1918" stroke-width="1.997"/><path d="M75.602 32.02l6.523 10.24-.993 1.102-9.444-4.725 5.68 8.905-.993 1.103-10.864-5.416 1.091-1.213 8.645 4.624-5.307-8.33 1.236-1.374 8.837 4.411-5.502-8.114zm6.442-5.504c.639-.517 1.313-.88 2.027-1.085a5.06 5.06 0 012.14-.163c.718.097 1.415.352 2.098.756.68.407 1.31.965 1.885 1.675.577.712.995 1.448 1.245 2.204.253.752.354 1.489.299 2.212a5.033 5.033 0 01-.603 2.059 5.695 5.695 0 01-1.473 1.749 5.705 5.705 0 01-2.027 1.079 5.16 5.16 0 01-2.157.155 5.645 5.645 0 01-2.108-.753c-.687-.402-1.312-.954-1.881-1.657-.561-.692-.969-1.409-1.225-2.158a5.548 5.548 0 01-.312-2.208c.048-.724.248-1.42.597-2.081.346-.665.846-1.258 1.495-1.784zm6.773 8.377c.456-.37.812-.797 1.057-1.28.247-.484.375-.993.391-1.53a4.378 4.378 0 00-.298-1.674c-.216-.576-.556-1.147-1.01-1.708-.464-.572-.954-1.027-1.47-1.354a4.278 4.278 0 00-1.572-.637 3.454 3.454 0 00-1.561.067c-.513.137-.998.39-1.452.758a4.08 4.08 0 00-1.065 1.27c-.254.477-.39.982-.41 1.522a4.38 4.38 0 00.289 1.676c.21.576.552 1.156 1.02 1.735.46.568.955 1.02 1.474 1.345a4.517 4.517 0 001.578.643 3.524 3.524 0 001.57-.07 3.97 3.97 0 001.459-.763zm15.312-8.53l-1.46.81-2.478-2.193a2.917 2.917 0 00-.723-.466 2.934 2.934 0 00-.8-.238 2.683 2.683 0 00-.827.008c-.278.05-.548.145-.805.287l-2.52 1.397 2.427 4.378-1.34.743-5.67-10.232 4.52-2.506a8.291 8.291 0 011.58-.687c.502-.155.972-.208 1.41-.159.44.044.849.202 1.229.476.38.275.718.68 1.016 1.218.201.364.327.724.383 1.084.056.36.044.712-.03 1.05a3.106 3.106 0 01-.409.979c-.193.31-.437.603-.73.87.84-.155 1.725.166 2.661.963zm-10.29-1.617l3.028-1.677a6.786 6.786 0 001.026-.684c.269-.228.465-.465.585-.71.121-.245.165-.507.14-.784-.032-.28-.136-.584-.32-.916-.647-1.166-1.7-1.343-3.164-.532l-3.24 1.796zm18.85-1.793l-6.754 2.592-4.192-10.922 1.43-.548 3.692 9.617 5.323-2.043zm-1.155-11.95l3.573-.958c3.845-1.03 6.265.314 7.263 4.038 1.021 3.811-.39 6.231-4.235 7.261l-3.573.958zm4.146 9.552l2.06-.551c.848-.227 1.524-.516 2.016-.868.497-.352.859-.758 1.075-1.22.217-.46.316-.975.302-1.55a8.331 8.331 0 00-.3-1.872 7.926 7.926 0 00-.664-1.725 3.198 3.198 0 00-1.035-1.152c-.42-.282-.934-.444-1.534-.493-.604-.049-1.328.042-2.168.267l-2.06.552zm10.19-11.132c.112.71.068 1.286-.138 1.734-.2.448-.579.714-1.13.801l-.12-.752c.527-.083.707-.633.545-1.654l-.786.124-.254-1.597 1.628-.259zm8.07 9.489c-.838.044-1.57-.017-2.202-.183-.628-.167-1.161-.416-1.586-.75a3.419 3.419 0 01-.99-1.208 4.351 4.351 0 01-.42-1.56l1.495-.078c.057.435.19.81.396 1.119.207.31.467.565.78.76a3.33 3.33 0 001.084.412 5.36 5.36 0 001.304.083c.424-.022.81-.086 1.16-.195a2.8 2.8 0 00.887-.432c.246-.182.434-.4.564-.65a1.63 1.63 0 00.172-.845 1.691 1.691 0 00-.233-.82c-.138-.217-.36-.4-.658-.55-.298-.148-.686-.276-1.155-.385a22.555 22.555 0 00-1.733-.33 10.302 10.302 0 01-1.768-.414c-.485-.169-.881-.374-1.193-.617a2.366 2.366 0 01-.69-.848 2.972 2.972 0 01-.262-1.117 2.888 2.888 0 01.23-1.32c.178-.404.436-.764.78-1.068a3.978 3.978 0 011.278-.739 5.786 5.786 0 011.707-.331 6.41 6.41 0 011.805.138 4.107 4.107 0 011.423.615c.405.278.73.63.974 1.054.247.42.394.91.44 1.467l-1.507.079c-.218-1.41-1.218-2.068-2.997-1.974-.878.045-1.543.245-1.993.598-.453.353-.664.793-.637 1.315.013.243.063.452.145.625.088.173.234.322.444.445.21.124.493.234.85.332.355.095.807.188 1.353.276.537.089 1.014.181 1.43.276.413.09.777.18 1.084.269.295.084.58.203.852.362a3.1 3.1 0 01.74.577c.22.226.403.498.545.807.142.309.225.668.247 1.07.027.51-.057.982-.25 1.417-.194.44-.469.822-.832 1.157-.364.33-.81.597-1.332.801a5.47 5.47 0 01-1.731.36zm28.443-7.99l-3.792-.805-2.144 10.089-1.523-.325 2.144-10.088-3.758-.799.288-1.354 9.073 1.928zm8.485 1.16c.772.28 1.43.672 1.974 1.178a5.05 5.05 0 011.24 1.75c.288.666.429 1.395.434 2.188.002.793-.152 1.62-.464 2.478-.314.862-.73 1.6-1.248 2.203a5.573 5.573 0 01-1.743 1.396 5.04 5.04 0 01-2.076.543 5.69 5.69 0 01-2.258-.362 5.715 5.715 0 01-1.968-1.181 5.168 5.168 0 01-1.244-1.77 5.652 5.652 0 01-.44-2.194c-.01-.796.142-1.616.451-2.465.305-.838.71-1.556 1.22-2.162a5.54 5.54 0 011.73-1.405 5.165 5.165 0 012.093-.56c.748-.046 1.514.077 2.299.362zm-3.693 10.12a3.98 3.98 0 001.642.247 3.555 3.555 0 001.513-.453 4.37 4.37 0 001.281-1.118c.383-.482.697-1.067.944-1.746.252-.691.39-1.346.404-1.957a4.278 4.278 0 00-.265-1.675 3.452 3.452 0 00-.86-1.304 3.896 3.896 0 00-1.397-.853 4.085 4.085 0 00-1.637-.26 3.475 3.475 0 00-1.516.433c-.473.26-.901.63-1.288 1.11-.386.477-.707 1.07-.962 1.769-.25.687-.383 1.343-.394 1.956a4.524 4.524 0 00.262 1.684c.194.502.481.943.868 1.31.39.371.856.657 1.405.856zm10.646 6.338c-.61-.338-1.094-.686-1.468-1.046a3.988 3.988 0 01-.827-1.097 2.839 2.839 0 01-.299-1.13 4.09 4.09 0 01.104-1.15 5.88 5.88 0 01.392-1.153c.172-.383.363-.762.573-1.141l3.28-5.918 1.34.742-3.268 5.896c-.378.68-.627 1.265-.75 1.755-.123.496-.137.924-.046 1.287.093.367.283.685.57.953a5.25 5.25 0 001.08.766c.43.239.834.404 1.215.501a2.03 2.03 0 001.113-.026c.358-.118.713-.357 1.065-.716.348-.36.711-.882 1.089-1.562l3.267-5.896 1.35.748-3.28 5.919c-.39.703-.8 1.302-1.23 1.791-.433.487-.907.842-1.423 1.06-.515.215-1.087.284-1.717.197-.632-.083-1.343-.344-2.13-.78zm10.196 6.699a5.925 5.925 0 01-1.572-1.732 5.104 5.104 0 01-.69-2.069 5.656 5.656 0 01.225-2.225c.23-.758.614-1.498 1.159-2.22.541-.719 1.138-1.287 1.794-1.72a5.58 5.58 0 012.054-.84 5.108 5.108 0 012.164.075c.735.18 1.435.524 2.113 1.035a6.79 6.79 0 011.386 1.38c.37.501.637 1.016.801 1.547.16.527.215 1.06.156 1.59a3.582 3.582 0 01-.537 1.524l-1.271-.958c.388-.63.477-1.293.26-1.998-.214-.709-.74-1.376-1.58-2.008a4.19 4.19 0 00-1.497-.739 3.45 3.45 0 00-1.569-.039c-.523.105-1.043.335-1.55.684-.51.354-.99.832-1.442 1.433-.44.584-.763 1.17-.96 1.747a4.285 4.285 0 00-.245 1.685 3.52 3.52 0 00.46 1.517c.268.472.645.891 1.133 1.259 1.34 1.01 2.681 1.322 4.01.931l1.068-1.417-2.47-1.861.84-1.116 3.666 2.762-3.593 4.769-.88-.664.424-1.218c-1.215.28-2.5-.092-3.857-1.114zm12.666 11.046l-1.11-1.073 3.828-3.964-4.385-4.235-3.829 3.965-1.101-1.065 8.126-8.415 1.102 1.064-3.327 3.445 4.385 4.235 3.327-3.445 1.11 1.072zm6.812 8.932l-5.37-6.873 9.22-7.203 5.204 6.662-1.09.853-4.263-5.455-2.813 2.197 3.982 5.097-1.1.86-3.983-5.096-3.112 2.431 4.427 5.667zm2.998 5.98c-.419-.728-.696-1.407-.836-2.046-.137-.635-.156-1.223-.053-1.753.102-.533.312-1.01.628-1.431a4.33 4.33 0 011.199-1.082l.748 1.297a2.6 2.6 0 00-.817.86c-.181.326-.29.673-.323 1.041-.028.366.014.751.125 1.152.113.395.287.799.519 1.2.211.367.443.682.7.944.252.264.516.462.787.595.274.137.553.204.834.207.285 0 .563-.074.832-.23.285-.164.492-.359.624-.58.132-.22.194-.502.192-.835-.002-.333-.065-.737-.18-1.205a22.413 22.413 0 00-.494-1.693 10.222 10.222 0 01-.434-1.763c-.069-.51-.066-.956.008-1.344a2.37 2.37 0 01.443-1c.217-.28.509-.528.876-.74a2.886 2.886 0 011.28-.395c.442-.025.88.042 1.306.21.427.169.84.435 1.238.804.397.366.755.823 1.071 1.37.331.573.562 1.13.696 1.671.133.543.166 1.059.098 1.547a3.177 3.177 0 01-.497 1.346c-.262.411-.632.765-1.107 1.059l-.754-1.307c1.157-.834 1.29-2.024.398-3.567-.44-.76-.919-1.264-1.437-1.504-.521-.244-1.009-.232-1.462.03a1.62 1.62 0 00-.49.413 1.09 1.09 0 00-.195.597 3.57 3.57 0 00.088.908c.078.36.2.804.37 1.33a24.88 24.88 0 01.656 2.489c.059.3.082.607.064.922a3.107 3.107 0 01-.178.922 2.89 2.89 0 01-.472.852 2.936 2.936 0 01-.841.706c-.443.255-.9.395-1.376.42a3.443 3.443 0 01-1.41-.216 4.284 4.284 0 01-1.317-.822 5.494 5.494 0 01-1.107-1.38zm15.582 9.832l-1.389-3.619-9.63 3.696-.557-1.454 9.629-3.696-1.377-3.587 1.292-.495 3.325 8.658zM51.569 130.69l-.413-1.542 10.35-2.774-11.279-.692-.39-1.454 9.424-6.234-10.35 2.774-.408-1.522 12.169-3.26.644 2.403-9.253 6.024 11.026.591.65 2.426zm15.541 3.087c.374.802.577 1.602.606 2.401a5.437 5.437 0 01-.388 2.278c-.289.726-.736 1.387-1.337 1.996-.601.605-1.35 1.118-2.24 1.534-.896.417-1.773.662-2.628.726-.852.068-1.648-.018-2.39-.263a5.43 5.43 0 01-1.994-1.168c-.594-.535-1.074-1.2-1.444-1.994a6.152 6.152 0 01-.6-2.4 5.562 5.562 0 01.4-2.294 6.078 6.078 0 011.338-2.006c.598-.613 1.337-1.123 2.22-1.534.87-.406 1.724-.645 2.575-.717a5.963 5.963 0 012.388.248 5.55 5.55 0 012.02 1.166c.604.536 1.094 1.212 1.474 2.027zm-10.519 4.895a4.244 4.244 0 001.062 1.438c.442.385.94.65 1.497.807.562.16 1.172.2 1.827.126.659-.076 1.344-.283 2.049-.611.718-.335 1.321-.73 1.797-1.184.482-.455.84-.946 1.075-1.477a3.706 3.706 0 00.337-1.648 4.186 4.186 0 00-.414-1.714 4.398 4.398 0 00-1.048-1.444 3.743 3.743 0 00-1.485-.824 4.695 4.695 0 00-1.826-.136c-.657.07-1.352.276-2.079.615-.713.332-1.314.73-1.79 1.189-.48.46-.84.952-1.082 1.482a3.804 3.804 0 00-.337 1.658c.013.58.151 1.153.417 1.723zm17.495 10.63l-2.212-3.54-9.42 5.885-.889-1.421 9.42-5.886-2.192-3.51 1.265-.79 5.293 8.472zm5.91 3.678c.592.658 1.02 1.363 1.281 2.12.264.752.363 1.516.296 2.291-.064.779-.299 1.542-.695 2.3-.398.754-.964 1.463-1.695 2.121-.734.661-1.502 1.152-2.3 1.463-.795.314-1.581.464-2.362.447a5.442 5.442 0 01-2.249-.533c-.724-.339-1.378-.835-1.964-1.486a6.154 6.154 0 01-1.274-2.119 5.57 5.57 0 01-.289-2.311 6.105 6.105 0 01.692-2.31c.393-.76.952-1.463 1.675-2.115.713-.642 1.461-1.121 2.253-1.44a5.97 5.97 0 012.357-.46c.78.011 1.54.187 2.271.525.735.336 1.401.838 2.003 1.507zm-8.628 7.756c.424.471.904.83 1.436 1.065.535.24 1.09.347 1.667.335a4.735 4.735 0 001.784-.415c.608-.264 1.203-.663 1.781-1.183.589-.53 1.05-1.083 1.373-1.657.328-.577.526-1.15.596-1.727a3.708 3.708 0 00-.16-1.675 4.191 4.191 0 00-.896-1.518 4.4 4.4 0 00-1.426-1.074 3.742 3.742 0 00-1.66-.354 4.698 4.698 0 00-1.786.404c-.608.259-1.213.66-1.809 1.195-.584.527-1.042 1.084-1.363 1.661-.324.58-.526 1.157-.602 1.733a3.79 3.79 0 00.162 1.685c.182.55.482 1.058.903 1.525zM85.22 175.02l-1.378-1.156 1.25-3.337c.109-.297.172-.604.188-.906a3.145 3.145 0 00-.068-.897 2.89 2.89 0 00-.328-.828 2.821 2.821 0 00-.6-.698l-2.376-1.995-3.465 4.13-1.264-1.06 8.098-9.652 4.265 3.58c.521.437.953.879 1.3 1.321.35.446.585.898.704 1.358a2.67 2.67 0 01-.005 1.419c-.129.487-.407.984-.832 1.491a3.495 3.495 0 01-.941.803c-.34.195-.7.32-1.07.375a3.321 3.321 0 01-1.14-.032 4.458 4.458 0 01-1.155-.399c.478.785.498 1.799.058 3.048zm-2.345-10.97l2.855 2.396c.389.327.752.583 1.083.769.333.182.646.287.94.315.293.027.572-.031.842-.163.27-.14.534-.362.797-.675.923-1.1.695-2.227-.686-3.386l-3.055-2.564zm18.474 10.55l-1.485-.857c.155-.361.236-.725.24-1.087a2.623 2.623 0 00-.199-1.062 3.107 3.107 0 00-.638-.971 4.392 4.392 0 00-1.053-.824c-.561-.323-1.122-.518-1.679-.576a3.432 3.432 0 00-1.629.211c-.53.2-1.03.524-1.51.974-.477.445-.92 1.018-1.32 1.712-.408.706-.687 1.384-.838 2.029-.15.64-.18 1.24-.083 1.792.094.554.31 1.056.638 1.504.332.449.768.83 1.314 1.145.891.515 1.713.704 2.466.574.757-.128 1.385-.556 1.894-1.269l1.485.858c-.397.556-.849.995-1.352 1.307a4.288 4.288 0 01-1.614.596 4.724 4.724 0 01-1.769-.085 6.677 6.677 0 01-1.816-.732c-.775-.447-1.396-.983-1.87-1.607a5.101 5.101 0 01-.947-2.058c-.16-.748-.157-1.537.002-2.371.163-.832.494-1.684.992-2.547.496-.86 1.067-1.569 1.708-2.13.645-.558 1.326-.955 2.052-1.187a5.15 5.15 0 012.254-.205c.777.098 1.552.368 2.327.816.59.34 1.093.744 1.512 1.211.418.468.737.969.953 1.497.221.532.332 1.086.331 1.655a4.098 4.098 0 01-.366 1.688zm13.32 1.37l-7.397 4.751-2.085 4.911-1.53-.65 2.083-4.91-1.72-8.622 1.87.794 1.198 6.81 5.724-3.872zm10.11 6.405l-1.664-.415a2.84 2.84 0 00-.068-1.112 2.624 2.624 0 00-.485-.966 3.105 3.105 0 00-.88-.757 4.39 4.39 0 00-1.24-.501c-.628-.157-1.22-.19-1.773-.092a3.441 3.441 0 00-1.507.652c-.454.339-.845.788-1.182 1.352-.337.56-.605 1.233-.799 2.01-.197.79-.279 1.52-.246 2.181.033.657.17 1.243.415 1.746.243.507.59.93 1.027 1.27.444.34.968.586 1.578.74 1 .248 1.842.203 2.53-.13.692-.331 1.179-.915 1.47-1.741l1.664.415c-.227.644-.54 1.19-.938 1.629a4.29 4.29 0 01-1.388 1.018 4.724 4.724 0 01-1.724.405 6.666 6.666 0 01-1.947-.202c-.868-.216-1.613-.56-2.24-1.029a5.112 5.112 0 01-1.479-1.718c-.359-.675-.574-1.434-.65-2.28-.073-.844.01-1.755.25-2.722.241-.963.594-1.802 1.055-2.517.467-.714 1.012-1.284 1.646-1.707a5.138 5.138 0 012.11-.819c.775-.12 1.594-.073 2.461.143a6.096 6.096 0 011.788.748c.53.334.975.728 1.33 1.176.358.45.617.952.773 1.5.162.549.196 1.124.113 1.723zm8.987 9.709l-7.748-.815 1.317-12.53 1.64.173-1.16 11.033 6.108.642zm12.715-.033l-9.391.163-.22-12.596 9.102-.159.027 1.49-7.454.13.067 3.844 6.964-.121.027 1.504-6.964.122.074 4.253 7.742-.135zm24.998-5.333l-1.729.496-2.068-2.902a3.136 3.136 0 00-.646-.663 3.163 3.163 0 00-.781-.445 2.898 2.898 0 00-.87-.191 2.778 2.778 0 00-.914.107l-2.983.855 1.486 5.182-1.585.454-3.473-12.11 5.352-1.535a8.928 8.928 0 011.822-.338c.565-.041 1.071.017 1.52.175.45.151.841.417 1.172.798.333.38.59.888.772 1.523.123.43.168.84.14 1.23a3.052 3.052 0 01-.287 1.096 3.346 3.346 0 01-.665.927 4.474 4.474 0 01-.977.735c.918.042 1.77.593 2.56 1.656zm-10.406-4.19l3.583-1.027a7.26 7.26 0 001.243-.468c.337-.175.6-.376.786-.604.187-.227.295-.491.336-.789.035-.3 0-.644-.114-1.038-.395-1.38-1.458-1.822-3.19-1.325l-3.834 1.1zm15.155 2.044l-1.568.633-4.72-11.68 1.568-.634zm-2.464-12.25l3.414-2.052c3.675-2.208 6.58-1.534 8.717 2.024 2.188 3.642 1.446 6.567-2.228 8.775l-3.415 2.052zm7.127 8.66l1.969-1.184c.81-.487 1.424-.986 1.83-1.496.409-.512.663-1.04.75-1.582.088-.542.038-1.104-.148-1.693a8.95 8.95 0 00-.867-1.85 8.504 8.504 0 00-1.2-1.589c-.423-.425-.889-.722-1.411-.886-.52-.166-1.099-.182-1.736-.055-.64.129-1.362.438-2.164.92l-1.969 1.183zm18.85-10.923l-7.3 5.91-7.928-9.79 7.075-5.73.938 1.159-5.793 4.691 2.42 2.988 5.413-4.384.947 1.17-5.414 4.383 2.677 3.306 6.018-4.873zm9.93-10.018l-1.226 1.314-3.267-1.421a3.11 3.11 0 00-.895-.236 3.142 3.142 0 00-.899.021 2.9 2.9 0 00-.844.284 2.8 2.8 0 00-.729.562l-2.116 2.27 3.943 3.676-1.125 1.207-9.214-8.593 3.797-4.072a8.959 8.959 0 011.388-1.228c.463-.326.927-.537 1.392-.632a2.666 2.666 0 011.417.079c.48.154.962.457 1.446.909.327.305.576.632.753.982.176.35.282.715.318 1.087.037.377.003.754-.092 1.137a4.46 4.46 0 01-.459 1.133c.81-.437 1.823-.403 3.047.102zm-11.076 1.767l2.542-2.726c.345-.371.62-.72.824-1.04.199-.324.32-.631.362-.923a1.55 1.55 0 00-.118-.85c-.125-.275-.332-.552-.632-.831-1.05-.98-2.188-.81-3.417.508l-2.72 2.917zm16.457-8.047c-.519.741-1.055 1.32-1.616 1.747-.558.423-1.123.71-1.687.85a3.695 3.695 0 01-1.683.039 4.67 4.67 0 01-1.601-.677l.925-1.321c.407.239.811.375 1.212.404.4.03.79-.021 1.163-.158.37-.139.727-.355 1.067-.646.334-.29.649-.643.935-1.051.262-.374.464-.745.603-1.114.143-.367.216-.713.222-1.039a2.03 2.03 0 00-.177-.909 1.762 1.762 0 00-.603-.707c-.29-.203-.575-.316-.85-.345-.276-.029-.58.038-.903.193-.324.154-.69.399-1.093.724-.411.327-.883.741-1.429 1.252-.548.516-1.055.923-1.523 1.226-.466.3-.903.5-1.316.603-.41.1-.803.109-1.176.024a3.202 3.202 0 01-1.122-.518 3.1 3.1 0 01-.968-1.07 3.295 3.295 0 01-.39-1.37 4.277 4.277 0 01.222-1.575 6.26 6.26 0 01.85-1.669 6.924 6.924 0 011.315-1.44 4.407 4.407 0 011.464-.8 3.433 3.433 0 011.54-.128c.52.07 1.034.27 1.537.6l-.932 1.332c-1.34-.751-2.562-.338-3.663 1.234-.543.774-.815 1.472-.813 2.087-.002.62.232 1.09.694 1.413.213.15.425.246.627.291.204.041.428.015.671-.081.244-.097.526-.263.845-.5.316-.24.694-.561 1.131-.966.432-.398.826-.742 1.183-1.032.35-.29.668-.539.947-.742.266-.194.556-.356.872-.482.314-.132.638-.213.98-.247.338-.035.69-.01 1.046.073.356.085.717.252 1.073.5.45.316.795.7 1.035 1.153a3.7 3.7 0 01.43 1.473 4.6 4.6 0 01-.202 1.662 5.922 5.922 0 01-.842 1.707z" fill="#1b1918" fill-rule="evenodd" stroke="#1b1918" stroke-width=".283"/><path d="M208.076 113.242c-.37 1.038 0 3.087 0 3.087l4.204-.88s.768.347 1.544-2.649c2.577-9.945-2.752-7.958-5.748.442z" fill="#008981" fill-rule="evenodd" stroke="#1b1918" stroke-width="1.997"/><g fill-rule="evenodd"><path d="M193.82 135.836l-8.573.038-.086-.008c-.935-.082-1.695-.49-2.214-1.096-1.717.932-3.36 1.403-5.608 1.602-.767.068-1.57.092-2.361.03l-13.19.016-.067-.004c-2.16-.151-3.466-1.777-3.69-3.82-.172-1.554-.616-5.795-1.31-7.161-.438-.858-1.678-.945-2.814-.908l-1.96 8.064c.083.728 1.789 3.036 2.227 3.833l-9.49.017-.068-.005c-2.434-.176-4.164-2.191-3.397-4.618l7.118-28.83 1.474-.001c3.6-.001 7.199-.153 10.8-.154 5.506-.003 11.447 2.147 11.44 7.844l1.686-.057c1.709-.059 3.42-.135 5.126-.242.695-.044 1.399.02 1.997.303l5.698-.182c1.997-.065 3.998-.07 5.994-.154 1.062-.045 2.12.165 2.76 1.112.842 1.245.196 2.702-.152 3.987-1.515 5.599-2.848 11.284-3.644 17.034l.798.395 1.633-6.133 1.97.786c.96.384 6.081 1.515 6.749.143-.356-.424-1.549-.99-1.934-1.156-4.002-1.727-6.67-4.694-5.597-9.317 1.73-7.462 12.593-8.7 18.734-7.014l1.786.49-2.216 8.62-2.02-.87c-.964-.414-2.244-.71-3.282-.836-.407-.049-2.32-.203-2.699.295.428.35 1.681.793 2.05.942 3.813 1.54 6.226 3.96 5.85 7.945l1.9.758c.96.383 6.08 1.515 6.748.143-.356-.424-1.549-.99-1.934-1.156-4-1.728-6.67-4.694-5.597-9.317 1.722-7.425 12.456-8.669 18.588-7.053l1.762.464-.194.848 1.973-.195c4.759-.472 9.476-.794 14.253-.91 4.04-1.184 12.956-1.453 16.211 1.622 2.137 2.019 1.99 5.205 1.38 7.84-.844 3.647-1.757 7.278-2.628 10.943-.548 2.306.497 3.052 1.34 5.295l-8.612-.012-.067-.005c-.874-.063-1.55-.42-2.019-.955-1.98.947-4.148 1.36-6.395 1.363-2.137.002-4.166-.578-5.676-2.152-1.195-1.245-1.664-2.76-1.602-4.367-.161.828-.318 1.656-.468 2.485-.173.943 1.684 3.204 2.175 4.02l-3.269.006c-6.139.008-3.093 0-9.18.008l-3.707.008c.936-1.22 3.114-3.254 3.468-4.758 1.34-5.695 2.751-11.398 3.68-17.176l-1.336-.963-1.317 5.763-2.075-.892c-.965-.415-2.245-.71-3.283-.836-.407-.05-2.32-.204-2.699.294.428.35 1.681.794 2.05.942 4.233 1.71 6.74 4.504 5.622 9.318-1.506 6.485-7.472 8.293-13.475 8.3-2.027.002-4.124-.158-6.09-.671l-1.814-.475 1.238-4.82c-2.263 4.598-7.444 5.96-12.654 5.966-1.931.002-3.93-.143-5.816-.602zm-22.145-22.532c-.93 3.453-3.254 6.108-6.38 7.45.489.705.869 1.504 1.163 2.343.939 2.68 1.465 6.007 1.896 8.811.064.422.253.762.634.973l.855.474c-1.285-2.666-.355-6.448.273-9.123l2.423-10.32zm71.645 13.91c.852-2.396 2.523-4.265 4.711-5.68 2.843-1.836 6.797-2.436 10.271-2.609.019-.122.033-.24.035-.334-1.683-1.136-7.344.072-9.125.538l-3.847 1.008 3.66-7.97-2.08 1.654c-.491.39-.537.947-.699 1.521a182.012 182.012 0 00-2.926 11.873zm12.785.789l.517-2.078c-1.896.215-4.002.798-4.365 2.368-.015.064-.04.186-.048.289.274.092.799.112 1 .112 1.104 0 1.991-.218 2.896-.691zm-98.97-16.98l-1.403 5.697c2.887-.031 4.499-.542 5.205-3.58.1-.435.252-1.288-.117-1.657-.636-.639-2.374-.607-3.686-.46zm25.636 15.443c.964-4.14 1.938-8.31 2.747-12.478l-3.214-1.115c.046.87-.274 1.767-.5 2.619-.903 3.391-1.674 6.817-2.54 10.217-.067.267-.272 1.236-.104 1.5.573.435 2.47-.234 3.611-.743zm65.873-23.06c-.372 1.604-1.257 2.938-2.49 4.017-1.365 1.193-3.014 1.77-4.823 1.77-1.635 0-3.134-.562-4.069-1.952-.845-1.256-.978-2.71-.64-4.166.37-1.602 1.233-2.932 2.471-4.007 1.365-1.185 3.03-1.74 4.832-1.74 1.635 0 3.173.557 4.089 1.973.807 1.249.962 2.673.63 4.105z" fill="#1b1918"/><path d="M264.017 134.16l-5.42-.007c-.597-.043-1.219-.469-1.026-1.743h-.303c-1.984 1.42-4.394 2.143-7.223 2.146-1.887.002-3.313-.528-4.315-1.573-1.017-1.06-1.316-2.455-.911-4.2.537-2.312 1.954-4.195 4.234-5.668 2.283-1.475 5.861-2.26 10.742-2.359.08-.269.16-.539.216-.778.378-1.636.235-2.284-.423-2.804-2.295-1.812-8.337-.525-10.853.134l2.122-4.619c2.23-.715 4.389-1.082 8.107-1.083 2.738 0 5.578.585 6.792 1.732 1.22 1.153 1.505 3.168.839 6.046-.98 4.225-2.09 8.587-3.12 13.01-.136.587-.027 1.312.542 1.765zm-6.277-4.934l1.321-5.307c-5.143.006-8.03 1.324-8.639 3.949-.417 1.802.51 2.71 2.788 2.708 1.76 0 3.13-.454 4.53-1.35zm-10.93-26.245c-.268 1.154-.905 2.158-1.896 3.026-.98.856-2.172 1.303-3.584 1.303-1.174.001-2.003-.372-2.506-1.12-.502-.747-.612-1.641-.37-2.69.269-1.155.883-2.151 1.873-3.01.978-.85 2.187-1.279 3.6-1.28 1.192 0 2.032.38 2.506 1.113.477.737.618 1.617.377 2.658zm-5.605 31.568l-9.18.007c.78-.536 1.403-1.62 1.596-2.437 1.345-5.715 2.792-11.622 3.71-17.335.088-.552-.099-1.321-.561-1.654 2.221-.22 6.763-.548 9.004-.783-.992.79-1.115 1.69-1.339 2.483-1.6 5.66-2.936 11.45-3.987 17.238-.15.826.03 1.708.757 2.48zm-29.929-6.837c-1.057 4.555-4.933 6.836-11.643 6.844-2.187.002-4.073-.203-5.654-.621l1.241-4.663c2.218.885 8.551 2.04 9.331-1.328.256-1.105-.761-2.163-3.073-3.161-2.986-1.29-5.4-3.33-4.51-7.164 1.434-6.181 11.236-7.043 16.403-5.624l-1.207 4.696c-1.975-.85-7.89-2.256-8.617.881-.411 1.778 2.012 2.5 3.236 2.994 3.232 1.305 5.424 3.138 4.493 7.146zm-43.201 6.815l-6.224.008c-1.532-.106-1.875-1.472-1.95-2.147-.454-4.125-.956-6.733-1.504-7.81-1.188-2.333-3.802-1.887-5.987-1.864l-2.349 9.66c-.032.942.314 1.613 1.201 2.175l-6.51.008c-1.241-.09-2.157-.94-1.723-2.224l6.783-27.466c3.602-.001 7.2-.152 10.8-.153 6.956-.003 10.442 2.971 9.335 7.74-.88 3.793-3.843 6.863-8.354 7.33l-.08.343c1.431.427 2.479 1.625 3.169 3.593.581 1.66 1.199 4.483 1.81 8.472.113.738.497 1.734 1.583 2.336zm-5.305-20.962c1.146-4.937-3.937-4.839-7.162-4.217l-2.267 9.214c.829.028 1.521.041 2.107.041 4.822-.002 6.543-1.681 7.322-5.038zm67.826 14.147c-1.057 4.555-4.933 6.836-11.643 6.844-2.168.002-4.04-.2-5.613-.61l1.2-4.674c2.218.885 8.551 2.04 9.331-1.328.256-1.105-.761-2.163-3.073-3.161-2.986-1.29-5.4-3.33-4.51-7.164 1.422-6.13 11.078-7.028 16.276-5.659l-1.08 4.731c-1.975-.85-7.89-2.256-8.617.881-.411 1.778 2.012 2.5 3.237 2.994 3.231 1.305 5.423 3.138 4.492 7.146zm-40.304 6.258l-4.966.021c-1.264-.112-1.308-1.225-1.244-1.667.014-.102.033-.199.054-.288h-.356c-2.353 1.63-3.968 2.228-6.607 2.46-7.283.644-6.583-4.047-5.225-9.834l2.432-10.36c.187-.696.102-1.325-.578-1.804a190.02 190.02 0 005.179-.244c2.032-.128 1.468 1.003 1.003 2.754-.867 3.259-1.788 7.266-2.543 10.237-1.35 5.304 3.824 4.286 6.962 2.514 1.49-6.412 2.422-10.62 2.981-13.503.135-.7-.022-1.62-.766-1.879 1.564-.05 4.377-.086 6.012-.154 1.762-.073 1.244.762.713 2.726-1.537 5.684-2.9 11.52-3.7 17.338-.078.56-.016 1.352.649 1.682z" fill="#fff"/><path d="M151.483 96.942h-8.454l-.086-.009c-.935-.082-1.695-.49-2.214-1.095-1.717.931-3.36 1.403-5.608 1.6-2.524.224-5.44-.027-7.05-2.263-.861-1.197-1.123-2.72-1.087-4.3-3.259 5.361-9.974 6.628-16.492 6.63-2.66.001-5.33-.066-7.989-.135l-2.394-.062.626-2.312c2.64-9.741 5-19.568 6.85-29.492l.286-1.537h1.564c3.326 0 6.647-.152 9.972-.152 2.64 0 4.925.27 7.16 1.763 2.261 1.509 3.103 3.808 2.96 6.175l1.992-.069c1.709-.058 3.42-.134 5.126-.241.695-.044 1.399.02 1.997.303 2.688.751.803 5.343.734 5.609-.814 3.13-1.532 6.287-2.33 9.42-.067.268-.272 1.238-.104 1.5.573.436 2.47-.233 3.611-.742.964-4.14 1.938-8.31 2.747-12.478-.25-1.193-1.105-2.34-2.078-3.39a58.88 58.88 0 012.751-.123l6.36-.133c1.063-.044 2.121.165 2.761 1.112l.05.077 3.126-.024c.247-.957.497-1.91.748-2.874v-.016l-1.59-2.764c3.524-.798 3.557-.839 7.095-1.095 4.2-.305 4.226 2.02 3.314 5.276l-.406 1.45 5.673-.03-.018.066 1.733-.013c.247-.957.497-1.91.749-2.874v-.016l-1.969-3.035c3.524-.42 3.935-.568 7.473-.824 4.2-.305 4.226 2.02 3.315 5.276l-.406 1.45 5.672-.03-2.214 8.028-5.213.031a390.233 390.233 0 00-1.166 4.89c-.25 1.076-1.206 4.737-1.113 5.755.888.398 4.778-.425 5.844-.703-.773 2.062-.517 3.716-2.366 5.096-3.179 2.372-9.944 2.776-12.158-.408-1.694-2.44-.987-6.54-.346-9.222l1.298-5.43-2.84.026.007-.026-3.708.022a384.887 384.887 0 00-1.166 4.89c-.25 1.076-1.207 4.737-1.114 5.755.889.398 4.508-.371 5.574-.65-.535 2.317-.367 3.915-2.408 5.263-2.487 1.643-6.757 2.205-9.62 1.05-1.915-.503-2.83-1.947-3.171-4.264-.325-2.206.153-4.766.6-6.636l1.297-5.43-1.787.017c-1.017 4.078-1.894 8.199-2.497 12.354-.17 1.176.845 3.018 2.098 4.014zm-22.898-14.569l1.736-7.395-1.243-.873a11.228 11.228 0 01-2.967 4.71c1.26.88 2.085 2.097 2.474 3.558zm-15.217 1.802l-1.235 5.177c2.545-.003 5.484-.432 6.074-2.974.094-.404.204-1.07-.102-1.423-.71-.82-3.058-.859-4.737-.78zm2.993-12.844l-.57 2.649c1.18 0 2.406-.09 3.284-.431.907-.352 1.24-1.65.186-1.993-.746-.244-1.869-.252-2.9-.225zm-86.415-2.835c.441-1.613 1.762-3.264 2.87-4.44h-14.01c.339.912 1.357 2.662 1.175 3.633-1.594 8.382-3.646 16.679-5.91 24.904-.59 2.143-1.388 3.479-2.964 4.913 4.71 0 9.42-.003 14.13-.006-.446-.935-1.28-2.987-1.073-4.068a321.26 321.26 0 015.782-24.935zm-.643 4.387l1.012 2.882c-.25 5.795-1.881 11.53-3.5 17.066-.587 2.008-.045 4.183 2.3 4.64l.179.034h.182l6.422-.003 3.398-.004c-.448-.585-2.37-3.026-2.24-3.646a715.255 715.255 0 012.598-11.5c1.296-1.988 3.348-2.295 5.502-1.338l1.568.697a18.13 18.13 0 00-.758 2.65c-1.304 6.323.358 12.978 7.828 13.14 2.651.057 5.292-.464 7.628-1.754 3.198-1.767 5.973-4.68 7.594-8.052a302.888 302.888 0 01-1.297 5.16c-.518 1.995.297 4.209 2.535 4.62l.17.03h.171l6.107-.003 3.44-.003c-.748-.683-2.328-2.77-2.108-3.726.995-4.321 1.964-8.648 2.92-12.978.746-.429 1.856-.984 2.28-.82.493.509.041 2.966-.095 3.559l-2.173 9.42c-.464 2.016.587 4.347 2.835 4.537l.08.007 8.58-.006c-.408-.802-1.891-2.88-1.692-3.76.932-4.12 1.935-8.222 2.889-12.336 1.34-5.782.289-10.049-6.54-10.049-2.27 0-4.29.558-6.189 1.533a2 2 0 00-.055-.084c-.616-.907-1.638-1.172-2.675-1.076-2.804.326-5.986.652-8.79.978.854.895 1.815 1.836 1.802 2.874a69.795 69.795 0 01-.597 4.422c-.079-1.779-.513-3.523-1.49-5.054-3.074-4.813-9.736-4.75-14.363-2.38a16.452 16.452 0 00-6.161 5.486c.521-1.09 1.046-2.178 1.571-3.265l.876-1.815-1.87-.75c-3.24-1.3-6.175-1.051-8.75.518-.664-.887-1.723-1.115-2.78-1.011-2.571.256-5.761.498-8.344 1.16zm32.262 10.954c1.677-7.597-5.428-5.693-6.889.592-2.002 8.618 5.608 5.218 6.89-.592z" fill="#1b1918"/><path d="M164.8 92.447l-.375.998c-1.497 2.113-8.357 3.286-10.16.69-.922-1.325-.97-3.909-.062-7.71l1.858-7.77-2.733.024 1.199-4.21 3.206-.024c.16-.63.528-2.06 1.11-4.29.164-.623-.034-1.637-.81-2.062 1.085-.13 3.525-.31 4.626-.39 2.13-.156 2.146.104 1.366 2.89l-1.08 3.852 5.684-.029-1.175 4.259-5.252.032a383.968 383.968 0 00-1.525 6.337c-.626 2.702-1.414 5.803-1.084 6.72.82 2.284 3.646 1.09 5.207.683zm-38.099-5.893c-1.399 6.035-6.37 9.066-16.21 9.069-1.706 0-4.349-.042-7.939-.135 2.65-9.777 5.027-19.678 6.883-29.639 3.684 0 6.292-.152 9.972-.152 3.135 0 4.673.483 6.115 1.446 4.65 3.104.932 10.576-3.225 11.813l-.08.341c3.913.652 5.408 3.275 4.484 7.257zm-6.66.25c1.168-5.032-4.971-4.688-8.182-4.413l-2.092 8.766c3.888.186 9.212.22 10.274-4.354zm-.196-17.038c-1.454-.475-3.464-.287-5.013-.274l-1.357 6.295c1.802.091 4.46.223 6.28-.484 2.595-1.006 2.805-4.651.09-5.537zM89.502 95.613l-5.542.003c-.983-.084-1.388-1.25-1.16-2.238l2.173-9.421c1.214-5.267-.644-7.664-5.684-4.35a1522.04 1522.04 0 01-3.09 13.744c-.177.77-.19 1.635.502 2.269l-6.107.003c-1.209-.222-1.252-1.53-1.053-2.297 1.512-5.842 2.996-11.823 3.577-17.91.04-.424-.033-.932-.623-1.275l5.877-.547c1.638-.152.907 1.192.847 2.322h.374c2.479-1.79 4.84-2.687 7.525-2.687 5.221 0 5.863 2.75 4.706 7.742-.954 4.119-1.958 8.22-2.89 12.346-.173.763.005 1.773.568 2.296zM68.39 83.772c-.928 4.39-4.193 8.291-7.879 10.327-2.21 1.221-4.575 1.565-6.677 1.52-4.36-.094-7.596-3.254-6.025-10.879 2.38-11.542 15.629-15.211 19.729-8.787 1.147 1.799 1.578 4.389.853 7.819zm-4.986.47c2.169-9.83-8.446-9.34-10.56-.24-2.529 10.879 8.632 8.981 10.56.24zM48.476 73.963a726.48 726.48 0 00-2.556 5.331c-3.07-1.364-6.232-.732-8.03 2.333a762.028 762.028 0 00-2.673 11.83c-.168.779-.023 1.663.68 2.163l-6.422.003c-1.242-.242-1.077-1.494-.853-2.264 1.714-5.864 3.408-11.897 3.592-18.01.011-.407-.186-.87-.782-1.143 1.662-.177 4.394-.41 6.398-.61 1.886-.185 1.143 1.295.79 2.83h.355c2.699-3.038 5.791-3.95 9.501-2.463zM22.796 95.62l-8.23.003c.61-.556 1.086-1.678 1.32-2.531 2.272-8.255 4.348-16.657 5.943-25.052.133-.697.05-1.455-.36-2.102h7.854c-.57.605-1.004 1.373-1.193 2.06a324.29 324.29 0 00-5.815 25.081c-.162.847.079 1.694.481 2.54zm158.554-3.173l-.375.998c-1.498 2.113-8.358 3.286-10.162.69-.92-1.325-.969-3.909-.06-7.71l1.857-7.77-2.732.024 1.198-4.21 3.206-.024c.16-.63.528-2.06 1.11-4.29.164-.623-.034-1.637-.81-2.062 1.085-.13 3.525-.31 4.626-.39 2.13-.156 2.146.104 1.366 2.89l-1.08 3.852 5.684-.029-1.175 4.259-5.252.032a383.968 383.968 0 00-1.525 6.337c-.626 2.702-1.414 5.803-1.084 6.72.82 2.284 3.647 1.09 5.207.683zm-33.276 2.589l-4.966.022c-1.264-.112-1.308-1.225-1.244-1.667.014-.103.033-.199.054-.289l-.356.001c-2.353 1.63-3.968 2.228-6.607 2.46-7.283.644-6.583-4.047-5.225-9.834l2.432-10.36c.187-.696.102-1.325-.578-1.804 1.54-.053 3.436-.135 5.179-.244 2.032-.128 1.468 1.003 1.003 2.754-.867 3.259-1.788 7.266-2.543 10.237-1.35 5.303 3.824 4.285 6.962 2.514 1.49-6.412 2.422-10.62 2.981-13.503.135-.7-.022-1.621-.766-1.879 1.564-.05 4.377-.086 6.012-.154 1.762-.074 1.244.762.713 2.726-1.537 5.684-2.9 11.52-3.7 17.338-.078.56-.016 1.352.649 1.682z" fill="#fff"/></g></svg>