<svg width="48" height="48" fill="none" xmlns="http://www.w3.org/2000/svg"><path d="M42 0H6a6 6 0 00-6 6v36a6 6 0 006 6h36a6 6 0 006-6V6a6 6 0 00-6-6z" fill="#306599"/><path d="M38.672 9.29c-3.01-2.213-7.352-2.077-10.837-1.295-2.745.617-5.36 1.806-7.774 3.38L16.34 6.45c-.515-.786-1.339-1.201-2.383-1.201-2.232 0-5.171 1.924-6.553 4.288-.88 1.508-.988 3.005-.27 4.27l4.34 5.77c-2.47 3.314-4.327 6.936-5.342 10.361 1.894-3.475 3.745-6.703 5.923-9.588l1.076 1.43c-4.917 7.846-5.454 16.028-.822 19.437 5.37 3.948 15.622.002 22.891-8.814 7.28-8.815 8.84-19.166 3.47-23.113zM13.04 12.47l6.958 9.339c.002.02-.006.042.002.063.216.604.325 1.238.325 1.882 0 1.38-.499 2.676-1.406 3.698l-.414-.172-8.023-10.662c.157-1.553 1.326-3.083 2.558-4.148zm7.609 9.847c1.745.899 3.924.866 5.658-.064l.934 5.99a3.495 3.495 0 00-2.01 1.846l-5.833-2.436a6.025 6.025 0 001.422-3.899 6.08 6.08 0 00-.171-1.437zm6.427-1.558a.5.5 0 00-.093-.221l-4.467-5.914a19.987 19.987 0 013.823-1.527c.85-.244 1.692-.406 2.512-.48 1.422-.141 2.75-.032 3.89.365.78.27 1.42.66 1.923 1.142 1.657 1.397 2.37 3.635 1.93 6.125-1.074 4.745-3.729 7.829-7.82 11.395l-1.698-10.885zm-.958.275l.108.692c-1.75 1.006-4.007.988-5.726-.072l-7.078-9.499c1.657-1.297 3.466-1.921 4.732-1.666l7.964 10.545zM8.26 10.038c1.181-2.023 3.844-3.799 5.698-3.799.705 0 1.228.254 1.575.782l.178.233c-1.34-.016-2.982.64-4.525 1.86C9.848 10.17 8.482 11.8 8.152 13.52l-.19-.253c-.646-1.144-.194-2.388.298-3.23zm26.48 21.876c-6.697 8.102-16.387 11.175-21.178 7.657-4.298-3.157-3.989-9.965.222-16.924l4.013 5.335c.052.07.123.125.204.16l10.124 4.228a.501.501 0 00.495-.067.494.494 0 00.184-.466l-.001-.003c6.97-3.639 12.953-16.298 4.91-19.799-3.114-1.08-7.519-.18-11.606 2.049l-1.288-1.705a27.86 27.86 0 012.008-1.092c4.17-2.078 8.522-2.68 11.801-1.869 1.104.206 2.102.619 2.962 1.253 1.263.925 2.1 2.232 2.556 3.8.266.9.393 1.88.393 2.92 0 4.3-1.789 9.666-5.8 14.523z" fill="#fff"/></svg>