<svg width="48" height="48" fill="none" xmlns="http://www.w3.org/2000/svg"><path d="M42 0H6a6 6 0 00-6 6v36a6 6 0 006 6h36a6 6 0 006-6V6a6 6 0 00-6-6z" fill="#168DE2"/><path d="M30.476 23.828c-.213-4.145-3.29-6.639-7.007-6.639h-.14c-4.29 0-6.668 3.373-6.668 7.205 0 4.29 2.877 6.999 6.651 6.999 4.207 0 6.973-3.082 7.174-6.727l-.01-.838zM23.35 13.479c2.866 0 5.561 1.267 7.54 3.25v.008c0-.952.64-1.67 1.53-1.67l.225-.001c1.391 0 1.678 1.316 1.678 1.733l.006 14.805c-.098.97 1 1.47 1.61.848 2.377-2.443 5.22-12.56-1.479-18.42-6.243-5.465-14.62-4.565-19.076-1.494-4.736 3.267-7.767 10.497-4.823 17.288 3.21 7.406 12.393 9.615 17.85 7.412 2.764-1.116 4.04 2.62 1.17 3.84-4.336 1.848-16.408 1.661-22.047-8.107-3.81-6.595-3.608-18.2 6.497-24.212 7.73-4.6 17.922-3.328 24.067 3.09 6.424 6.71 6.049 19.274-.216 24.158-2.839 2.22-7.056.06-7.03-3.173l-.028-1.058c-1.977 1.962-4.608 3.106-7.474 3.106-5.662 0-10.644-4.98-10.644-10.644 0-5.718 4.982-10.759 10.644-10.759" fill="#fff"/></svg>