<svg width="48" height="48" fill="none" xmlns="http://www.w3.org/2000/svg"><path d="M42 0H6a6 6 0 00-6 6v36a6 6 0 006 6h36a6 6 0 006-6V6a6 6 0 00-6-6z" fill="#F48420"/><path d="M24 24.232c5.242 0 9.49-4.25 9.49-9.491A9.49 9.49 0 0024 5.25a9.49 9.49 0 00-9.49 9.491A9.49 9.49 0 0024 24.232zm0-14.16a4.67 4.67 0 110 9.338 4.67 4.67 0 010-9.338z" fill="#fff"/><path d="M30.948 24.972c-2.666 2.1-6.948 2.1-6.948 2.1s-4.282 0-6.948-2.1c-1.973-1.554-3.457-.659-3.992.418-.934 1.876.12 2.784 2.503 4.312 2.035 1.307 4.83 1.795 6.635 1.977l-1.507 1.507-5.593 5.592c-.85.85-.85 2.229 0 3.078l.257.256c.85.85 2.228.85 3.077 0l5.594-5.592 5.592 5.592c.85.85 2.228.85 3.078 0l.257-.256a2.178 2.178 0 000-3.078l-5.594-5.593-1.512-1.511c1.807-.186 4.573-.676 6.59-1.972 2.382-1.529 3.438-2.436 2.503-4.312-.535-1.077-2.02-1.972-3.991-.418z" fill="#fff"/></svg>