<svg width="48" height="48" fill="none" xmlns="http://www.w3.org/2000/svg"><path d="M42 0H6a6 6 0 00-6 6v36a6 6 0 006 6h36a6 6 0 006-6V6a6 6 0 00-6-6z" fill="#00ABF1"/><path d="M42.75 12.37a15.372 15.372 0 01-4.418 1.21 7.723 7.723 0 003.382-4.255 15.408 15.408 0 01-4.886 1.866 7.68 7.68 0 00-5.615-2.43 7.694 7.694 0 00-7.694 7.695c0 .602.068 1.19.2 1.753-6.395-.322-12.064-3.384-15.858-8.04a7.656 7.656 0 00-1.042 3.869 7.689 7.689 0 003.423 6.403 7.67 7.67 0 01-3.485-.962v.097a7.7 7.7 0 006.17 7.545 7.749 7.749 0 01-3.473.13 7.702 7.702 0 007.186 5.343 15.432 15.432 0 01-9.555 3.294c-.62 0-1.233-.036-1.835-.108a21.774 21.774 0 0011.794 3.458c14.151 0 21.89-11.724 21.89-21.89 0-.335-.008-.666-.022-.996a15.639 15.639 0 003.838-3.983z" fill="#fff"/></svg>