<svg width="48" height="48" fill="none" xmlns="http://www.w3.org/2000/svg"><path d="M42 0H6a6 6 0 00-6 6v36a6 6 0 006 6h36a6 6 0 006-6V6a6 6 0 00-6-6z" fill="#4C75A3"/><path fill-rule="evenodd" clip-rule="evenodd" d="M23.598 34.608h2.241s.677-.075 1.023-.447c.318-.343.308-.985.308-.985s-.044-3.007 1.352-3.45c1.376-.436 3.143 2.907 5.016 4.192 1.416.972 2.493.76 2.493.76l5.008-.07s2.619-.162 1.377-2.222c-.102-.168-.724-1.523-3.724-4.308-3.14-2.915-2.72-2.443 1.063-7.484 2.304-3.07 3.225-4.945 2.937-5.748-.274-.764-1.969-.563-1.969-.563l-5.639.036s-.417-.058-.728.128c-.302.181-.497.605-.497.605s-.893 2.376-2.083 4.396c-2.51 4.263-3.514 4.49-3.925 4.224-.954-.617-.716-2.478-.716-3.801 0-4.132.627-5.855-1.22-6.3-.613-.149-1.065-.247-2.633-.263-2.011-.02-3.714.007-4.678.479-.642.315-1.137 1.014-.835 1.055.373.05 1.217.227 1.664.836.578.786.558 2.552.558 2.552s.332 4.863-.776 5.467c-.76.415-1.802-.431-4.041-4.3-1.147-1.98-2.013-4.171-2.013-4.171s-.166-.409-.464-.628c-.362-.266-.867-.35-.867-.35l-5.358.035s-.804.023-1.1.373c-.262.311-.02.954-.02.954s4.194 9.814 8.944 14.76c4.356 4.536 9.302 4.238 9.302 4.238z" fill="#fff"/></svg>