<svg width="23" height="23" viewBox="0 0 23 23" fill="none" xmlns="http://www.w3.org/2000/svg">
<path d="M10 3.12109H3C2.46957 3.12109 1.96086 3.33181 1.58579 3.70688C1.21071 4.08195 1 4.59066 1 5.12109V19.1211C1 19.6515 1.21071 20.1602 1.58579 20.5353C1.96086 20.9104 2.46957 21.1211 3 21.1211H17C17.5304 21.1211 18.0391 20.9104 18.4142 20.5353C18.7893 20.1602 19 19.6515 19 19.1211V12.1211" stroke="#01A0E2" stroke-width="2" stroke-linecap="round" stroke-linejoin="round"/>
<path d="M17.5 1.62132C17.8978 1.2235 18.4374 1 19 1C19.5626 1 20.1022 1.2235 20.5 1.62132C20.8978 2.01915 21.1213 2.55871 21.1213 3.12132C21.1213 3.68393 20.8978 4.2235 20.5 4.62132L11 14.1213L7 15.1213L8 11.1213L17.5 1.62132Z" stroke="#01A0E2" stroke-width="2" stroke-linecap="round" stroke-linejoin="round"/>
</svg>
