<svg width="40" height="40" viewBox="0 0 40 40" fill="none" xmlns="http://www.w3.org/2000/svg">
<path d="M25 10.8284C25.2626 10.5658 25.5744 10.3574 25.9176 10.2153C26.2608 10.0732 26.6286 10 27 10C27.3714 10 27.7392 10.0732 28.0824 10.2153C28.4256 10.3574 28.7374 10.5658 29 10.8284C29.2626 11.0911 29.471 11.4029 29.6131 11.746C29.7553 12.0892 29.8284 12.457 29.8284 12.8284C29.8284 13.1999 29.7553 13.5677 29.6131 13.9108C29.471 14.254 29.2626 14.5658 29 14.8284L15.5 28.3284L10 29.8284L11.5 24.3284L25 10.8284Z" stroke="#01A0E2" stroke-width="2" stroke-linecap="round" stroke-linejoin="round"/>
</svg>
