<svg width="48" height="48" viewBox="0 0 48 48" fill="none" xmlns="http://www.w3.org/2000/svg">
<path d="M42 0H6C2.68629 0 0 2.68629 0 6V42C0 45.3137 2.68629 48 6 48H42C45.3137 48 48 45.3137 48 42V6C48 2.68629 45.3137 0 42 0Z" fill="#3B5998"/>
<path d="M26.9033 42.75V25.6441H32.6449L33.5046 18.9783H26.9034V14.7225C26.9034 12.7923 27.4397 11.4769 30.2067 11.4769L33.7369 11.4759V5.51324C33.1266 5.43132 31.0315 5.25 28.593 5.25C23.5035 5.25 20.0196 8.35742 20.0196 14.0623V18.9783H14.2632V25.6442H20.0195V42.75H26.9033V42.75Z" fill="white"/>
</svg>
