<?xml version="1.0" encoding="UTF-8" standalone="no"?>
<svg
   version="1.1"
   width="284.05069"
   height="198.4252"
   id="svg112"
   viewBox="0 0 284.05069 198.4252"
   sodipodi:docname="afabaecd0b87456c60636a7281b679dd.cdr"
   xmlns:inkscape="http://www.inkscape.org/namespaces/inkscape"
   xmlns:sodipodi="http://sodipodi.sourceforge.net/DTD/sodipodi-0.dtd"
   xmlns="http://www.w3.org/2000/svg"
   xmlns:svg="http://www.w3.org/2000/svg">
  <defs
     id="defs116" />
  <sodipodi:namedview
     id="namedview114"
     pagecolor="#ffffff"
     bordercolor="#666666"
     borderopacity="1.0"
     inkscape:pageshadow="2"
     inkscape:pageopacity="0.0"
     inkscape:pagecheckerboard="0" />
  <path
     d="m 238.17018,90.3971 37.6297,6e-4 c 6.2238,-0.2693 9.4501,2.4853 7.8398,8.806 l -8.5631,34.7463 c -1.8265,6.8781 -5.6802,8.9578 -12.7277,8.7057 h -33.7902 c -16.6299,34.0994 -51.2216,55.7695 -89.2072,55.7695 -52.310497,0 -95.687797,-40.6969 -99.002497,-92.8174 H 5.4384833 l -0.077,-0.0143 c -3.9399,-0.7284 -5.90040001,-2.8361 -5.23300001,-6.9128 l 0.0051,-0.0337 L 9.6287833,60.1143 C 10.760483,55.3896 13.409483,53.627 18.188983,53.3498 l 33.1759,-6e-4 C 68.479583,20.5669 102.32918,0 139.35148,0 c 51.3636,0 94.3227,39.3039 98.8187,90.3971 z"
     style="fill:#1b1918;fill-rule:evenodd"
     id="path2" />
  <path
     d="m 139.35118,3.1197 c 51.1492,0 92.971,39.9867 95.9199,90.3973 h 46.5571 l -11.3397,46.0188 h -43.9007 c -15.2475,32.9221 -48.5761,55.7697 -87.2366,55.7697 -21.9221,0 -42.131297,-7.3459 -58.300297,-19.7095 -22.1581,-16.9428 -36.731,-43.3093 -37.73,-73.1081 H 2.3996833 L 13.739383,56.4691 h 39.5373 C 69.010983,24.8516 101.64498,3.1197 139.35118,3.1197 Z"
     style="fill:#8bb7e8;fill-rule:evenodd"
     id="path4" />
  <path
     d="m 241.01798,93.513 5e-4,0.0147 h 40.9212 l -11.3397,46.0188 h -39.5372 l -0.0578,0.1132 h -28.446 V 93.513 Z"
     style="fill:#009ee0;fill-rule:evenodd"
     id="path6" />
  <path
     d="m 241.66898,92.3736 6e-4,0.015 h 33.5681 c 7.4759,-0.464 7.4794,3.3074 6.2038,7.473 l -2.0088,8.1546 h -76.8737 V 92.3736 Z"
     style="fill:#ffffff;fill-rule:evenodd;stroke:#1b1918;stroke-width:1.9843;stroke-linecap:butt;stroke-linejoin:miter;stroke-dasharray:none"
     id="path8" />
  <path
     d="m 275.10498,125.5465 -2.2963,9.3779 c -1.0514,5.1319 -4.3877,5.6665 -8.4377,5.6665 -20.7755,0.003 -41.4208,0.0173 -62.202,0.0173 v -15.0617 z"
     style="fill:#e30016;fill-rule:evenodd;stroke:#1b1918;stroke-width:1.9843;stroke-linecap:butt;stroke-linejoin:miter;stroke-dasharray:none"
     id="path10" />
  <path
     d="m 43.321483,102.5026 -6e-4,-0.0147 H 2.3996833 L 13.739383,56.4691 h 39.5373 l 0.0577,-0.1132 h 28.4461 v 46.1467 z"
     style="fill:#009ee0;fill-rule:evenodd"
     id="path12" />
  <path
     d="m 42.510283,103.9217 -6e-4,-0.0149 H 6.9917833 c -4.2534,-0.034 -5.7532,-1.7425 -4.7951,-5.1252 l 2.5838,-10.4885 H 81.585183 v 15.6286 z"
     style="fill:#e30016;fill-rule:evenodd;stroke:#1b1918;stroke-width:1.9843;stroke-linecap:butt;stroke-linejoin:miter;stroke-dasharray:none"
     id="path14" />
  <path
     d="m 9.1777833,70.2257 2.3493997,-9.5331 c 1.1249,-4.0911 3.1704,-5.3932 6.7476,-5.3967 21.2976,-0.0155 42.452,-0.1133 63.7491,-0.1133 v 15.0431 z"
     style="fill:#ffffff;fill-rule:evenodd;stroke:#1b1918;stroke-width:1.9843;stroke-linecap:butt;stroke-linejoin:miter;stroke-dasharray:none"
     id="path16" />
  <path
     d="m 139.57778,22.7385 a 76.4129,76.4129 0 0 1 76.4129,76.4129 76.4129,76.4129 0 1 1 -76.4129,-76.4129 z"
     style="fill:#004393;fill-rule:evenodd;stroke:#1b1918;stroke-width:2.2754;stroke-linecap:butt;stroke-linejoin:miter;stroke-dasharray:none"
     id="path18" />
  <path
     d="M 139.42858,22.7434 V 175.5402"
     style="fill:none;stroke:#1b1918;stroke-width:1.9966;stroke-linecap:butt;stroke-linejoin:miter;stroke-dasharray:none"
     id="path20" />
  <path
     d="m 139.51588,25.5126 a 20.5239,9.4102 0 0 1 20.5239,9.4102 20.5239,9.4102 0 1 1 -20.5239,-9.4102 z"
     style="fill:none;stroke:#1b1918;stroke-width:1.9842;stroke-linecap:butt;stroke-linejoin:miter;stroke-dasharray:none"
     id="path22" />
  <path
     d="m 138.95668,22.6831 c 20.5122,0 37.1472,8.2237 37.1472,18.3645 0,10.1409 -16.635,18.3651 -37.1472,18.3651 -20.5121,0 -37.1471,-8.2242 -37.1471,-18.3651 0,-10.1408 16.635,-18.3645 37.1471,-18.3645 z"
     style="fill:none;stroke:#1b1918;stroke-width:1.9845;stroke-linecap:butt;stroke-linejoin:miter;stroke-dasharray:none"
     id="path24" />
  <path
     d="m 188.43278,40.0728 c 2.2304,3.4094 3.378,7.0304 3.378,10.6702 0,16.8329 -23.9192,30.4835 -53.4137,30.4835 -29.4938,0 -53.413097,-13.6506 -53.413097,-30.4835 0,-1.8202 0.2864,-3.6398 0.8539,-5.4304"
     style="fill:#6e7071;fill-rule:evenodd;stroke:#1b1918;stroke-width:1.9845;stroke-linecap:butt;stroke-linejoin:miter;stroke-dasharray:none"
     id="path26" />
  <path
     d="m 204.09238,57.8726 c 0.016,0.4153 0.0234,0.8402 0.0234,1.26 0,24.3488 -29.4294,44.0943 -65.7187,44.0943 -34.323,0 -62.877997,-17.7274 -65.525797,-40.686"
     style="fill:#008981;fill-rule:evenodd;stroke:#1b1918;stroke-width:1.9845;stroke-linecap:butt;stroke-linejoin:miter;stroke-dasharray:none"
     id="path28" />
  <path
     d="m 214.03018,80.5649 c -10.1568,25.2711 -40.8583,42.5335 -75.6336,42.5335 -32.4772,0 -61.681297,-15.1114 -73.574997,-38.0661"
     style="fill:none;stroke:#1b1918;stroke-width:1.9646;stroke-linecap:butt;stroke-linejoin:miter;stroke-dasharray:none"
     id="path30" />
  <path
     d="m 214.42838,109.656 c -17.8021,19.4945 -46.0457,31.0072 -76.0318,31.0072 -28.7153,0 -55.909797,-10.5629 -73.826597,-28.6862"
     style="fill:none;stroke:#1b1918;stroke-width:1.9845;stroke-linecap:butt;stroke-linejoin:miter;stroke-dasharray:none"
     id="path32" />
  <path
     d="m 204.53368,137.7413 c -19.1787,11.2742 -42.3459,17.3875 -66.1372,17.3875 -22.6414,0 -44.790797,-5.5443 -63.467097,-15.8673"
     style="fill:none;stroke:#1b1918;stroke-width:1.9845;stroke-linecap:butt;stroke-linejoin:miter;stroke-dasharray:none"
     id="path34" />
  <path
     d="m 186.34948,159.1464 c -15.2038,5.0121 -31.5005,7.6058 -47.953,7.6058 -14.9671,0 -29.8424,-2.1507 -43.882297,-6.3287"
     style="fill:none;stroke:#1b1918;stroke-width:1.9845;stroke-linecap:butt;stroke-linejoin:miter;stroke-dasharray:none"
     id="path36" />
  <path
     d="m 139.42858,32.3965 c 0,0 -28.453,9.3245 -43.527797,37.8532 -15.0749,28.5288 -15.7817,97.9639 43.676997,105.4923"
     style="fill:none;stroke:#1b1918;stroke-width:1.9842;stroke-linecap:butt;stroke-linejoin:miter;stroke-dasharray:none"
     id="path38" />
  <path
     d="m 139.72688,32.3965 c 0,0 28.453,9.3245 43.5279,37.8532 15.0749,28.5288 15.7817,97.9639 -43.677,105.4923"
     style="fill:none;stroke:#1b1918;stroke-width:1.9842;stroke-linecap:butt;stroke-linejoin:miter;stroke-dasharray:none"
     id="path40" />
  <path
     d="m 139.64818,32.3965 c 0,0 14.8594,11.044 19.9868,38.1459 5.1275,27.1019 8.0167,97.5469 -20.0577,105.1996"
     style="fill:none;stroke:#1b1918;stroke-width:1.9843;stroke-linecap:butt;stroke-linejoin:miter;stroke-dasharray:none"
     id="path42" />
  <path
     d="m 139.50668,32.3965 c 0,0 -14.8594,11.044 -19.9869,38.1459 -5.1274,27.1019 -8.0166,97.5469 20.0577,105.1996"
     style="fill:none;stroke:#1b1918;stroke-width:1.9843;stroke-linecap:butt;stroke-linejoin:miter;stroke-dasharray:none"
     id="path44" />
  <path
     d="m 139.38398,32.3965 c -0.6172,-0.2064 -30.0109,-3.03 -55.086897,28.1964 -25.0759,31.2264 -26.9291,105.9708 55.280197,115.1491"
     style="fill:none;stroke:#1b1918;stroke-width:1.9796;stroke-linecap:butt;stroke-linejoin:miter;stroke-dasharray:none"
     id="path46" />
  <path
     d="m 139.77058,32.3965 c 0.6172,-0.2064 30.0109,-3.03 55.0869,28.1964 25.0759,31.2264 26.9291,105.9708 -55.2802,115.1491"
     style="fill:none;stroke:#1b1918;stroke-width:1.9796;stroke-linecap:butt;stroke-linejoin:miter;stroke-dasharray:none"
     id="path48" />
  <path
     d="m 139.25918,32.1039 c 0,0 13.1685,-7.6085 33.9454,-1.1706"
     style="fill:none;stroke:#1b1918;stroke-width:1.9842;stroke-linecap:butt;stroke-linejoin:miter;stroke-dasharray:none"
     id="path50" />
  <path
     d="m 139.84448,32.3965 c 0,0 -13.1685,-7.6084 -33.9453,-1.1705"
     style="fill:none;stroke:#1b1918;stroke-width:1.9842;stroke-linecap:butt;stroke-linejoin:miter;stroke-dasharray:none"
     id="path52" />
  <path
     d="m 139.84448,32.3965 c 0,0 4.6821,-7.0232 13.1684,-8.1937"
     style="fill:none;stroke:#1b1918;stroke-width:1.9842;stroke-linecap:butt;stroke-linejoin:miter;stroke-dasharray:none"
     id="path54" />
  <path
     d="m 139.84448,32.3965 c 0,0 -4.6821,-7.0232 -13.1685,-8.1937"
     style="fill:none;stroke:#1b1918;stroke-width:1.9842;stroke-linecap:butt;stroke-linejoin:miter;stroke-dasharray:none"
     id="path56" />
  <path
     d="m 88.110783,81.9271 c 0,0 -1.5436,2.6463 -3.7489,3.5284 -2.2052,0.8821 -6.3952,3.0873 -7.4978,4.8515 -1.1026,1.7642 -1.3231,2.6463 -1.5437,4.19 -0.2205,1.5436 -1.3231,6.3951 -1.3231,6.3951 0,0 1.9847,10.8057 2.8668,13.6725 0.8821,2.8668 2.2052,2.8668 3.3079,3.0873 1.1026,0.2206 1.5436,1.5437 3.5283,1.9847 1.9848,0.4411 1.5437,-0.2205 3.9695,0 2.4257,0.2206 3.7489,0.6616 3.9694,1.9848 0.2205,1.3231 0,0.6615 1.9847,2.2052 1.9847,1.5437 3.5284,0.2205 2.2053,2.4257 -1.3232,2.2053 -0.8821,6.8363 1.3231,9.4826 2.2052,2.6462 2.6463,5.513 2.6463,6.8362 0,1.3231 0,4.4105 0,4.4105 0,0 -3.3222,1.5577 -1.5585,3.7629 3.006097,3.7586 11.679597,14.6319 15.671997,15.2021 1.5437,0.2205 2.4258,0.2205 3.7489,0.2205 1.3231,0 3.9694,-1.1026 3.9694,-1.1026 0,0 3.5284,0.8821 3.0874,-1.9847 -0.4411,-2.8668 -1.9848,-3.3079 -0.4411,-2.8668 5.8497,1.6713 0.4608,-2.2954 3.7489,-3.5284 1.7642,-0.6616 4.8515,-2.2052 5.0721,-3.9694 0.2205,-1.7642 0.8821,-2.4258 -0.4411,-5.2926 -1.3231,-2.8668 -1.9847,-2.4258 -1.3231,-4.1899 0.6615,-1.7642 5.072,-3.7489 8.3799,-7.0568 3.3078,-3.3078 5.072,-5.5131 5.7336,-7.2773 0.6616,-1.7642 0.8821,-4.631 0.8821,-4.631 0,0 -3.7489,1.9847 -6.6157,0.4411 -2.8668,-1.5437 -3.0874,-3.3079 -3.0874,-3.3079 0,0 -4.4104,-2.6463 -4.8515,-4.8515 -0.441,-2.2052 0.2205,-2.4257 -0.8821,-4.1899 -1.1026,-1.7642 -0.8821,-0.8821 -1.5436,-3.0874 -0.6616,-2.2052 -1.5437,-5.072 -2.2053,-7.0567 -0.6616,-1.9847 -1.3231,-1.5437 -2.4257,-3.0873 -1.1027,-1.5437 -0.4411,-1.9848 -2.4258,-2.8669 -1.9847,-0.882 -4.19,-1.1026 -5.5131,-2.2052 -1.3231,-1.1026 -0.8821,-2.2052 -2.6463,-2.2052 -1.7642,0 -1.5436,-1.5437 -2.6463,0.6615 -1.1026,2.2053 -3.3078,1.1027 -3.3078,1.1027 0,0 -0.8821,-1.7642 -1.9847,-2.6463 -3.9601,-3.1681 -0.1504,-6.2295 -2.4258,-6.8362 -3.3079,-0.8821 -6.395197,-1.7642 -6.395197,-1.7642 0,0 -0.6616,-0.8821 -2.2052,-0.6616 -1.5437,0.2205 -3.5284,-0.441 -3.5284,-0.441 0,0 -2.6463,-1.7642 -3.5284,0.6615 z"
     style="fill:#008981;fill-rule:evenodd;stroke:#1b1918;stroke-width:1.9966;stroke-linecap:butt;stroke-linejoin:miter;stroke-dasharray:none"
     id="path58" />
  <path
     d="m 94.957183,70.0774 c -1.3728,0.6336 -0.915,3.0508 -2.5243,3.5871 -1.9319,0.6436 -1.7353,5.9154 -0.9112,6.491 0.7801,0.545 1.1115,2.4823 4.608,1.7521 1.0433,-0.2178 0.8641,-1.6064 3.3824,-3.2915 3.811597,-2.5503 10.379697,-3.8403 17.889097,2.623 3.7353,3.215 0.973,8.2355 6.9175,8.2355 0.465,0 2.325,0.9964 2.325,0.9964 -1.5795,2.2608 2.6236,3.2607 -0.934,6.6784 -2.3504,2.2581 1.1745,2.6712 1.3933,2.0973 0.1978,-0.5186 0.2218,0.5557 0.9984,1.8884 0.7767,1.3328 1.2202,2.3325 1.9968,4.2209 0.7767,1.8884 1.9969,3.5543 2.2189,4.3319 0.222,0.7776 0.3328,1.2219 1.6641,2.2215 1.3313,0.9997 -0.1108,-0.2222 1.3313,2.1104 1.4422,2.3327 2.1077,3.2212 2.1077,4.5542 0,1.333 -0.8875,2.3324 0.4438,2.6658 1.3313,0.3334 3.661,0.2223 4.1047,-0.4442 0.4438,-0.6665 4.8814,-1.7773 6.3236,-3.4435 1.4422,-1.6661 0.2218,-2.1106 1.9968,-2.2215 1.7751,-0.1109 1.8857,0.8888 2.9952,-0.222 1.1096,-1.1108 0.8878,-1.3328 1.4425,-2.1104 0.5546,-0.7776 0.3323,-0.4445 1.331,-1.4442 0.9987,-0.9996 1.4422,-1.3327 1.4422,-1.8881 0,-0.5554 0.5549,-0.6665 -0.3327,-1.333 -0.8875,-0.6665 -1.5533,-0.8885 -1.5533,-0.8885 0,0 -0.222,-0.7774 -0.9984,-1.1108 -0.7764,-0.3334 -1.2204,-0.3331 -1.3313,-0.9997 -0.1108,-0.6665 -0.3326,-1.1107 -0.3326,-1.1107 0,0 -1.2202,0.8885 -1.8859,1.555 -0.6658,0.6665 -0.8298,2.5492 -2.108,1.4439 -11.1556,-9.6452 7.3126,-2.3591 11.5376,-3.4434 1.5583,-0.3998 3.0353,-0.183 4.8577,-0.2998 5.0943,2.8273 6.0636,1.3414 6.9271,1.8728 0.8636,0.5315 0.1329,1.1293 0.0665,1.9265 -0.0665,0.7971 0.8635,3.6535 1.6607,4.9157 0.7971,1.2621 1.3286,2.2586 1.6607,2.8564 0.3322,0.5979 0.465,0.6643 0.5314,1.3286 0.0665,0.6643 0.5315,1.1293 1.0629,1.5943 0.5314,0.465 0.7307,0.6643 0.93,1.4614 0.1993,0.7972 0.93,2.1257 1.4614,2.1922 0.5315,0.0664 0.2658,-0.465 0.7308,-1.395 0.465,-0.93 1.7271,-1.9929 1.7935,-3.6536 0.0665,-1.6607 0.0665,-2.79 0.0665,-3.5207 0,-0.7308 -0.3986,-1.5279 0.3321,-2.2586 0.7307,-0.7307 2.4579,-3.7865 2.9229,-5.0486 0.465,-1.2621 0.5978,-1.2621 1.1957,-1.86 0.6213,-0.6213 0.5089,-2.142 1.2999,-2.9703 3.5612,-3.7294 2.5421,-2.041 5.379,-0.9065 2.6275,1.051 1.4481,5.2718 2.1561,5.2718 8.0396,0 2.2408,-8.5871 6.7093,-4.1186 0.8636,0.8636 -0.0415,3.964 -0.0415,3.964 0.0373,4.711 6.0688,2.3213 4.4258,-2.8347 -0.484,-1.5187 -0.0462,-2.7868 -0.9964,-4.185 -4.1924,-6.1685 -1.4061,-6.5999 0.6643,-12.09 0.4778,-1.2674 0.3985,-4.2515 -0.2657,-6.5765 -0.6643,-2.325 -1.1958,-4.7828 -1.6608,-5.7128 -0.465,-0.93 -2.9893,-3.5208 -3.72,-4.185 -0.7307,-0.6643 -0.8638,-1.1958 -0.93,-1.86 -0.3109,-3.1205 -0.404,-9.668 -4.1662,-12.1441 0,-5.7438 -10.6474,-13.5638 -10.7138,-12.7003 -0.0664,0.8636 -0.3322,1.86 -0.3322,1.86 0,0 -1.5943,-0.0664 -2.7235,-1.2621 -1.1293,-1.1957 -2.7239,-2.7236 -3.255,-3.6536 -4.6293,-8.1011 4.4386,-2.0889 4.123,-2.8651 -2.4641,-6.0551 -24.716,-12.1075 -24.716,-11.643 0,0.4645 1.3286,3.6802 2.6572,4.2117 1.3286,0.5314 2.1921,0.93 2.325,1.2621 0.8833,2.2084 -1.2622,5.2913 -1.6607,7.3736 -0.6359,3.3172 -3.3215,2.2168 -3.5207,1.4614 -0.7426,-2.8154 -5.4341,0.4309 -4.6501,2.6572 1.0975,3.1154 0.0294,1.5404 -0.7307,2.7875 -0.1548,0.2541 3.8218,4.8444 -2.9893,5.1839 -0.6862,0.0341 -2.0081,-1.8032 -2.1166,-1.332 -0.7065,3.0643 -4.6354,2.5211 -8.3127,4.8527 -1.2241,0.7759 -3.7301,1.0142 -2.8001,-1.5649 0.5566,-1.5431 -1.7173,-1.5572 -2.3813,-2.0222 -0.6641,-0.465 0.0664,-0.1329 -0.6643,-0.8636 -0.7307,-0.7307 -0.5979,-0.9964 -3.0557,-0.8636 -2.4579,0.1329 -3.7865,0.5315 -4.4508,1.4615 -0.6643,0.93 -2.8564,2.79 -4.3178,3.3214 -1.4615,0.5314 -3.0558,0.3986 -3.5872,0.7307 -3.982,2.4887 -1.7975,3.1476 -0.6418,5.2145 6.2337,11.1499 -3.4499,-1.476 -7.9939,5.0155 -0.465,0.6643 -1.3286,1.2622 -1.86,1.3286 -2.2376,0.2796 -5.2607,10.3844 -8.037897,7.8386 -0.7972,-0.7307 -0.1993,0.1329 -1.1293,-0.9964 -0.7786,-0.9453 -1.7444,-2.205 -3.0557,-2.0593 z"
     style="fill:#008981;fill-rule:evenodd;stroke:#1b1918;stroke-width:1.9966;stroke-linecap:butt;stroke-linejoin:miter;stroke-dasharray:none"
     id="path60" />
  <path
     d="m 108.61948,29.6398 c 8.9635,-3.9993 18.8411,-6.3156 29.2329,-6.5473 0.0736,0.6167 -1.9521,0.8085 -2.329,1.9396 -0.3768,1.131 -1.876,2.2215 -3.1992,2.2215 -2.7552,0 -0.6932,1.0782 -0.1138,2.527 0.4408,1.1024 -3.6519,2.101 -3.6519,2.101 -3.2293,-0.3588 -7.0641,-2.7105 -1.415,0.4277 1.9845,1.1024 1.9847,1.9847 1.9847,1.9847 l -0.8821,1.9848 c 0,0 -1.3231,0.882 -3.0873,1.3231 -1.7642,0.441 -1.1026,0 -2.2052,0 -1.1027,0 -2.8668,1.7642 -6.3952,2.8668 -3.5284,1.1026 -8.6004,-0.2205 -10.3646,-0.2205 -3.3452,0 -5.0881,2.4697 -1.9847,-1.3232 0,0 0.6615,-2.6462 6.3951,-3.3078 5.7337,-0.6616 12.1288,-4.631 12.7904,-5.9542 0.6616,-1.3231 1.9944,-4.3289 3.097,-5.4315 0.5114,-0.5115 -2.7522,3.8044 -3.0622,5.3557 -0.2202,1.1024 -1.773,1.5605 -1.773,1.5605 l -8.6264,1.1616 -6.6157,1.5437 z"
     style="fill:#008981;fill-rule:evenodd;stroke:#1b1918;stroke-width:1.9966;stroke-linecap:butt;stroke-linejoin:miter;stroke-dasharray:none"
     id="path62" />
  <path
     d="m 141.47758,152.0536 c -3.0874,1.1026 -3.3079,-1.5437 -3.7489,1.1026 -0.4411,2.6463 0.441,2.8668 0.441,4.19 0,1.3231 -1.3231,0.441 -1.3231,2.4257 0,1.9847 1.5436,3.9694 3.7489,1.7642 2.2052,-2.2052 5.0765,-6.6157 5.0765,-8.1594 0,-6.4102 0.1834,-2.8865 -4.1944,-1.3231 z"
     style="fill:#008981;fill-rule:evenodd;stroke:#1b1918;stroke-width:1.9966;stroke-linecap:butt;stroke-linejoin:miter;stroke-dasharray:none"
     id="path64" />
  <path
     d="m 75.602283,32.0203 6.5223,10.2393 -0.9928,1.1026 -9.4435,-4.7251 5.68,8.9046 -0.9928,1.1032 -10.8648,-5.4162 1.0913,-1.2125 8.6454,4.6233 -5.3076,-8.3302 1.2362,-1.3731 8.8368,4.411 -5.5018,-8.1145 z m 6.4414,-5.5046 c 0.639,-0.5168 1.3137,-0.8796 2.0275,-1.0851 0.7109,-0.2077 1.4241,-0.262 2.1395,-0.1624 0.7183,0.0973 1.4151,0.352 2.0983,0.7556 0.6803,0.407 1.3103,0.9657 1.8848,1.6749 0.5774,0.7126 0.9957,1.4484 1.2453,2.2041 0.253,0.7522 0.3537,1.4892 0.2988,2.212 -0.0503,0.7211 -0.2518,1.4071 -0.6033,2.0592 -0.3493,0.6554 -0.8406,1.2373 -1.4728,1.749 -0.6357,0.5151 -1.3132,0.8745 -2.027,1.0788 -0.7137,0.2055 -1.4354,0.2553 -2.1571,0.1551 -0.7217,-0.1002 -1.4247,-0.3498 -2.1078,-0.7534 -0.6866,-0.4018 -1.3121,-0.9531 -1.8809,-1.6561 -0.561,-0.6923 -0.9685,-1.4089 -1.2249,-2.1588 -0.2598,-0.7472 -0.3606,-1.4836 -0.3125,-2.2075 0.0487,-0.724 0.248,-1.4196 0.5972,-2.0813 0.3464,-0.6645 0.8462,-1.2583 1.4949,-1.7841 z m 6.773,8.3777 c 0.4568,-0.3702 0.8122,-0.7975 1.0573,-1.2798 0.2474,-0.4845 0.3747,-0.9939 0.3911,-1.5299 0.0176,-0.5429 -0.0843,-1.101 -0.2977,-1.6743 -0.2162,-0.5762 -0.5564,-1.1474 -1.0109,-1.7089 -0.463,-0.5716 -0.9537,-1.0262 -1.4694,-1.3539 -0.519,-0.3317 -1.0409,-0.5434 -1.5724,-0.6362 -0.5287,-0.0957 -1.0471,-0.0758 -1.5611,0.0668 -0.5122,0.137 -0.9973,0.39 -1.4513,0.7579 -0.4573,0.3702 -0.8156,0.7941 -1.0652,1.269 -0.2536,0.4777 -0.3895,0.9832 -0.4093,1.5232 -0.0198,0.5388 0.0753,1.0964 0.2881,1.6754 0.2106,0.5762 0.5525,1.1564 1.0206,1.7349 0.4602,0.5683 0.9543,1.02 1.4733,1.3454 0.5225,0.3289 1.0477,0.5434 1.5787,0.6425 0.5309,0.0928 1.0562,0.0741 1.5696,-0.0691 0.5196,-0.1421 1.0046,-0.3957 1.4586,-0.763 z m 15.312597,-8.53 -1.4609,0.8094 -2.4769,-2.1933 c -0.221297,-0.1936 -0.466397,-0.3498 -0.723397,-0.4653 -0.2581,-0.1183 -0.5253,-0.1981 -0.7998,-0.2383 -0.2751,-0.0407 -0.5502,-0.0368 -0.8269,0.008 -0.2785,0.0503 -0.5479,0.1449 -0.8049,0.2875 l -2.52,1.3969 2.4266,4.3782 -1.3392,0.7427 -5.6716,-10.232 4.5214,-2.5064 c 0.553,-0.3062 1.0794,-0.5343 1.5787,-0.6871 0.5031,-0.1546 0.9729,-0.2078 1.411,-0.1585 0.4393,0.0436 0.8485,0.202 1.2283,0.476 0.3798,0.2745 0.7183,0.6804 1.0166,1.2181 0.2009,0.3634 0.326597,0.7239 0.382597,1.0833 0.0561,0.36 0.0442,0.7127 -0.0305,1.0511 -0.0765,0.3442 -0.213997,0.6674 -0.408097,0.9781 -0.1936,0.3102 -0.437,0.6034 -0.7296,0.8694 0.8399,-0.1539 1.724597,0.1665 2.660797,0.9634 z m -10.290297,-1.6171 3.0277,-1.6777 c 0.412,-0.2287 0.7545,-0.4585 1.0262,-0.6832 0.2688,-0.2281 0.4647,-0.4653 0.5852,-0.7103 0.1212,-0.2451 0.1647,-0.5066 0.1393,-0.7845 -0.0312,-0.2797 -0.1353,-0.5831 -0.3198,-0.9159 -0.6464,-1.1654 -1.6992,-1.3431 -3.1635,-0.5315 l -3.2394,1.7955 z m 18.849697,-1.7932 -6.7532,2.5924 -4.1925,-10.922 1.4303,-0.5484 3.6916,9.6167 5.3234,-2.0433 z m -1.1547,-11.951 3.5733,-0.9571 c 3.8445,-1.0302 6.2648,0.3141 7.2627,4.038 1.0211,3.811 -0.3906,6.2313 -4.235,7.2615 l -3.5728,0.9577 z m 4.1456,9.5534 2.0603,-0.5519 c 0.8485,-0.227 1.5237,-0.5157 2.0162,-0.8672 0.4969,-0.352 0.8586,-0.7584 1.0754,-1.2197 0.2168,-0.4613 0.3159,-0.9759 0.3011,-1.5498 -0.0192,-0.5728 -0.1183,-1.1954 -0.3,-1.8724 -0.1771,-0.66 -0.3984,-1.2368 -0.6639,-1.7258 -0.2694,-0.4874 -0.6096,-0.8711 -1.0347,-1.1513 -0.42,-0.2819 -0.9339,-0.4443 -1.5339,-0.4936 -0.6045,-0.0487 -1.3279,0.0419 -2.1679,0.2672 l -2.0603,0.5519 z m 10.1901,-11.1326 c 0.1121,0.7093 0.0679,1.286 -0.1376,1.7343 -0.2003,0.4483 -0.579,0.7138 -1.1303,0.8009 l -0.1189,-0.7516 c 0.5259,-0.0832 0.7059,-0.6334 0.544,-1.6545 l -0.7862,0.1245 -0.2536,-1.5979 1.6284,-0.2581 z m 8.0703,9.4888 c -0.8382,0.0442 -1.5695,-0.0169 -2.2018,-0.1828 -0.6283,-0.167 -1.1615,-0.416 -1.586,-0.7494 -0.429,-0.3323 -0.7579,-0.7353 -0.9905,-1.2085 -0.2327,-0.4777 -0.3725,-0.9945 -0.42,-1.5594 l 1.4954,-0.0781 c 0.0572,0.4342 0.1896,0.8089 0.3962,1.1185 0.2072,0.3096 0.467,0.5649 0.7806,0.7602 0.3136,0.1918 0.6758,0.3288 1.0833,0.4115 0.4025,0.0786 0.8417,0.1075 1.3042,0.0832 0.4233,-0.0221 0.8099,-0.0855 1.1592,-0.1947 0.3498,-0.1048 0.6458,-0.2508 0.8875,-0.4325 0.2457,-0.1817 0.4336,-0.3996 0.5638,-0.6492 0.1296,-0.253 0.1884,-0.5338 0.172,-0.8451 -0.017,-0.3283 -0.0968,-0.6011 -0.2332,-0.8196 -0.1375,-0.2179 -0.3594,-0.4013 -0.6577,-0.5502 -0.2977,-0.1488 -0.686,-0.2762 -1.1547,-0.386 -0.4743,-0.1132 -1.0471,-0.2219 -1.7331,-0.3288 -0.69,-0.107 -1.2776,-0.2451 -1.7677,-0.4144 -0.4851,-0.1692 -0.8819,-0.3741 -1.1932,-0.6175 -0.3079,-0.244 -0.5389,-0.5264 -0.69,-0.8479 -0.1511,-0.3215 -0.24,-0.694 -0.2621,-1.1173 -0.0249,-0.471 0.0521,-0.9125 0.2293,-1.32 0.1783,-0.4041 0.437,-0.7636 0.78,-1.0675 0.3441,-0.304 0.7686,-0.5513 1.2786,-0.7387 0.506,-0.1868 1.076,-0.2988 1.7071,-0.3317 0.6611,-0.0351 1.2611,0.0113 1.8051,0.1387 0.5439,0.1279 1.0183,0.3328 1.423,0.6147 0.4047,0.2774 0.7301,0.6289 0.9735,1.0534 0.2474,0.4205 0.3945,0.9107 0.441,1.4671 l -1.5079,0.0792 c -0.2174,-1.4094 -1.2175,-2.0676 -2.9971,-1.9742 -0.8774,0.0458 -1.543,0.245 -1.9924,0.5982 -0.4534,0.3532 -0.6645,0.793 -0.6374,1.3155 0.0131,0.2422 0.0629,0.4517 0.1455,0.6249 0.0872,0.1732 0.2338,0.3215 0.4438,0.4449 0.21,0.1234 0.493,0.2343 0.849,0.3322 0.356,0.0945 0.8077,0.1874 1.3534,0.2757 0.5377,0.0888 1.0143,0.1811 1.4309,0.2762 0.412,0.0906 0.7765,0.18 1.0839,0.2683 0.2949,0.0843 0.579,0.2038 0.8513,0.3622 0.2768,0.1546 0.5207,0.3459 0.7404,0.5768 0.2201,0.2264 0.403,0.4987 0.545,0.8072 0.1421,0.309 0.2253,0.6684 0.2468,1.0703 0.0266,0.51 -0.0571,0.9821 -0.2507,1.4168 -0.1936,0.4392 -0.4681,0.8218 -0.8315,1.1569 -0.364,0.3311 -0.8094,0.5972 -1.3313,0.8015 -0.5224,0.2055 -1.1009,0.3266 -1.7315,0.3594 z m 28.4433,-7.9888 -3.7918,-0.806 -2.1441,10.0888 -1.5238,-0.3244 2.1447,-10.0882 -3.7578,-0.7987 0.2875,-1.3544 9.0728,1.9284 z m 8.4846,1.1586 c 0.7721,0.2813 1.4309,0.6725 1.9743,1.1785 0.544,0.5026 0.9583,1.0856 1.2407,1.7507 0.2876,0.6656 0.428,1.3941 0.4336,2.1877 0.002,0.7924 -0.1528,1.6205 -0.4647,2.478 -0.3141,0.8621 -0.7296,1.5996 -1.2481,2.2024 -0.5145,0.6045 -1.0947,1.0704 -1.7422,1.3958 -0.6441,0.3278 -1.3358,0.5089 -2.0762,0.5434 -0.7414,0.0385 -1.4931,-0.0832 -2.2578,-0.3617 -0.7687,-0.2796 -1.4258,-0.6752 -1.9687,-1.1813 -0.5433,-0.506 -0.9577,-1.0992 -1.2435,-1.7693 -0.2853,-0.6702 -0.4341,-1.4015 -0.4398,-2.1951 -0.01,-0.7952 0.1415,-1.6154 0.4506,-2.465 0.3045,-0.8372 0.7092,-1.556 1.2197,-2.1617 0.5066,-0.6079 1.0862,-1.0737 1.7309,-1.4048 0.6459,-0.3311 1.3449,-0.5191 2.092,-0.5604 0.7483,-0.0453 1.5147,0.077 2.2992,0.3628 z m -3.6927,10.12 c 0.553,0.2009 1.102,0.2858 1.6415,0.2473 0.5428,-0.0373 1.0448,-0.1907 1.5129,-0.4528 0.4744,-0.2649 0.9006,-0.639 1.2815,-1.1179 0.3827,-0.4817 0.6974,-1.067 0.9441,-1.7462 0.2519,-0.6911 0.3889,-1.346 0.4042,-1.9573 0.017,-0.6153 -0.0708,-1.1717 -0.2649,-1.6749 -0.1902,-0.5026 -0.4743,-0.9367 -0.8609,-1.3035 -0.3815,-0.369 -0.8479,-0.6538 -1.397,-0.8536 -0.5535,-0.2015 -1.1009,-0.2903 -1.6369,-0.2598 -0.54,0.0289 -1.0432,0.1727 -1.5158,0.4336 -0.4727,0.2604 -0.9011,0.6294 -1.2883,1.11 -0.3855,0.4771 -0.707,1.0692 -0.9611,1.7682 -0.2502,0.6872 -0.3832,1.3432 -0.3945,1.9562 -0.0125,0.617 0.0736,1.1779 0.2621,1.6839 0.1941,0.5027 0.4811,0.9436 0.8677,1.3098 0.3894,0.3719 0.8564,0.6572 1.4054,0.857 z m 10.6458,6.3383 c -0.6091,-0.3374 -1.0942,-0.6855 -1.4677,-1.046 -0.3702,-0.3583 -0.6436,-0.7228 -0.827,-1.0964 -0.1817,-0.3679 -0.2802,-0.7443 -0.2989,-1.1298 -0.0203,-0.3826 0.0136,-0.7647 0.1036,-1.1501 0.0861,-0.3872 0.2179,-0.7693 0.3917,-1.153 0.1726,-0.3838 0.3634,-0.763 0.5734,-1.1417 l 3.2807,-5.9178 1.3392,0.7421 -3.2682,5.8957 c -0.3776,0.6809 -0.6266,1.265 -0.7506,1.7552 -0.1217,0.4964 -0.1358,0.9243 -0.0447,1.2866 0.0928,0.3679 0.2824,0.6854 0.5694,0.9537 0.2853,0.2712 0.6441,0.5247 1.0794,0.7659 0.4313,0.2388 0.8343,0.4035 1.2158,0.5009 0.3838,0.094 0.7534,0.0866 1.1128,-0.026 0.3578,-0.1183 0.7127,-0.3572 1.0647,-0.7161 0.3481,-0.3605 0.7115,-0.8818 1.0891,-1.5622 l 3.2676,-5.8957 1.3505,0.7483 -3.2801,5.9183 c -0.3905,0.7036 -0.8009,1.3025 -1.2299,1.7915 -0.4342,0.4868 -0.9079,0.8422 -1.4241,1.0607 -0.5151,0.2145 -1.0868,0.283 -1.7168,0.1959 -0.6317,-0.0827 -1.3426,-0.3436 -2.1299,-0.78 z m 10.1957,6.6989 c -0.6673,-0.5027 -1.1898,-1.0811 -1.5718,-1.7315 -0.3849,-0.6532 -0.6119,-1.3443 -0.6894,-2.0688 -0.077,-0.7245 -0.001,-1.4643 0.2247,-2.225 0.2303,-0.7585 0.6141,-1.4983 1.1586,-2.2206 0.5417,-0.7188 1.1383,-1.2871 1.7943,-1.7195 0.6594,-0.4296 1.3426,-0.7104 2.0536,-0.8411 0.7137,-0.1285 1.4337,-0.1059 2.1639,0.0758 0.7352,0.1806 1.4354,0.5241 2.1135,1.0347 0.5524,0.416 1.0126,0.8762 1.3862,1.3805 0.3702,0.501 0.6368,1.016 0.8009,1.5464 0.1607,0.527 0.2145,1.0602 0.1557,1.5905 -0.0572,0.5361 -0.2366,1.0398 -0.5366,1.5243 l -1.2713,-0.9583 c 0.3877,-0.6294 0.4766,-1.2933 0.2598,-1.998 -0.214,-0.7087 -0.7404,-1.376 -1.5798,-2.0083 -0.4766,-0.3594 -0.9781,-0.6079 -1.4966,-0.7386 -0.5224,-0.1336 -1.0431,-0.1466 -1.569,-0.0391 -0.523,0.1047 -1.0431,0.3351 -1.5503,0.6843 -0.51,0.3532 -0.9894,0.8315 -1.4422,1.4326 -0.4398,0.5842 -0.7625,1.17 -0.9594,1.7474 -0.1993,0.5813 -0.2814,1.1428 -0.2451,1.6844 0.0385,0.5378 0.1907,1.0483 0.4601,1.517 0.2678,0.4721 0.6447,0.8915 1.1321,1.2588 1.3403,1.0098 2.6818,1.3223 4.0108,0.9317 l 1.0676,-1.4168 -2.4707,-1.8616 0.8405,-1.1162 3.6661,2.7628 -3.5931,4.7681 -0.8807,-0.6639 0.4251,-1.2181 c -1.2147,0.2813 -2.4996,-0.0911 -3.8575,-1.1139 z m 12.6665,11.0459 -1.1105,-1.0726 3.8285,-3.9644 -4.3849,-4.235 -3.8292,3.965 -1.1015,-1.0641 8.1264,-8.4151 1.1021,1.0641 -3.3271,3.4448 4.385,4.2344 3.327,-3.4448 1.1106,1.0726 z m 6.8121,8.9324 -5.3699,-6.8732 9.2188,-7.2026 5.2046,6.6621 -1.0907,0.8524 -4.2622,-5.4548 -2.8125,2.1973 3.9819,5.0971 -1.1009,0.8603 -3.9825,-5.097 -3.112,2.4316 4.4269,5.6665 z m 2.9982,5.9795 c -0.4194,-0.7274 -0.6968,-1.4066 -0.8366,-2.0456 -0.1364,-0.6351 -0.1562,-1.2232 -0.0526,-1.753 0.1013,-0.5332 0.3119,-1.0092 0.6277,-1.4309 0.3198,-0.4245 0.7166,-0.7839 1.1988,-1.0822 l 0.7483,1.2967 c -0.3611,0.2479 -0.6345,0.536 -0.8168,0.8609 -0.1817,0.3255 -0.2909,0.6725 -0.3232,1.041 -0.0283,0.3656 0.0142,0.7511 0.1251,1.1518 0.1132,0.3945 0.287,0.7987 0.5185,1.1994 0.2117,0.3674 0.4438,0.6826 0.6996,0.9447 0.2525,0.2638 0.5168,0.4613 0.7879,0.5943 0.274,0.137 0.553,0.2049 0.8343,0.2078 0.2847,5e-4 0.5621,-0.0747 0.8315,-0.2304 0.2847,-0.1641 0.4919,-0.3589 0.6243,-0.5802 0.1319,-0.2207 0.1942,-0.502 0.1919,-0.8349 -0.002,-0.3333 -0.0656,-0.7369 -0.1805,-1.2045 -0.1144,-0.4743 -0.2774,-1.0341 -0.4936,-1.6935 -0.2185,-0.6634 -0.3623,-1.2498 -0.4336,-1.7632 -0.069,-0.5094 -0.0668,-0.956 0.008,-1.3437 0.0781,-0.3849 0.2247,-0.7194 0.4426,-0.9996 0.2174,-0.2807 0.5089,-0.5287 0.8762,-0.7409 0.4081,-0.2355 0.8366,-0.3679 1.2804,-0.3945 0.4409,-0.0249 0.879,0.0418 1.3052,0.21 0.4274,0.1686 0.8406,0.4347 1.2385,0.8043 0.3962,0.3656 0.7551,0.823 1.0709,1.3698 0.3311,0.5733 0.5621,1.1292 0.6957,1.6714 0.133,0.5428 0.1658,1.0585 0.0984,1.547 -0.0634,0.4867 -0.2286,0.9362 -0.4969,1.346 -0.2621,0.4109 -0.6323,0.7647 -1.1072,1.0584 l -0.7545,-1.3069 c 1.157,-0.8338 1.2894,-2.0236 0.3979,-3.5671 -0.4392,-0.7607 -0.9186,-1.2634 -1.4371,-1.5039 -0.5207,-0.244 -1.0086,-0.2321 -1.4615,0.0294 -0.2105,0.1217 -0.3741,0.2615 -0.4907,0.4138 -0.1149,0.1562 -0.1806,0.3537 -0.1947,0.5971 -0.0147,0.2434 0.0147,0.5457 0.0888,0.9074 0.0776,0.36 0.1999,0.8043 0.3691,1.3307 0.1647,0.5196 0.2994,0.986 0.4036,1.4003 0.1064,0.4087 0.1919,0.7738 0.253,1.0879 0.0588,0.3006 0.0815,0.6079 0.0639,0.9226 -0.0124,0.317 -0.0718,0.6215 -0.1777,0.9215 -0.1024,0.2989 -0.2615,0.5859 -0.4721,0.8525 -0.2111,0.2666 -0.4935,0.5043 -0.8416,0.7058 -0.4427,0.2553 -0.9006,0.3951 -1.376,0.4194 -0.4795,0.0272 -0.9453,-0.0436 -1.4089,-0.2151 -0.4601,-0.1743 -0.8988,-0.4505 -1.3182,-0.8224 -0.4206,-0.3725 -0.7908,-0.8326 -1.1066,-1.3794 z m 15.5815,9.8324 -1.389,-3.6186 -9.6292,3.6961 -0.5581,-1.4541 9.6292,-3.6967 -1.3772,-3.5863 1.2928,-0.4958 3.3243,8.659 z"
     style="fill:#1b1918;fill-rule:evenodd;stroke:#1b1918;stroke-width:0.2835;stroke-linecap:butt;stroke-linejoin:miter;stroke-dasharray:none"
     id="path66" />
  <path
     d="m 51.568983,130.6905 -0.4132,-1.5429 10.3509,-2.7736 -11.2797,-0.6922 -0.3895,-1.4535 9.4237,-6.2342 -10.3508,2.7735 -0.4076,-1.5215 12.169,-3.2608 0.6441,2.4033 -9.2533,6.0247 11.0261,0.591 0.6498,2.4259 z m 15.5413,3.0866 c 0.3741,0.802 0.5768,1.6018 0.6056,2.401 0.0317,0.797 -0.0968,1.5566 -0.3883,2.2783 -0.2881,0.7256 -0.7358,1.3867 -1.3363,1.9958 -0.6017,0.6045 -1.3494,1.1179 -2.2409,1.5333 -0.8949,0.4172 -1.7728,0.6628 -2.6269,0.7268 -0.8525,0.0679 -1.6483,-0.0187 -2.3898,-0.2638 -0.7403,-0.2411 -1.4043,-0.63 -1.9947,-1.1677 -0.5937,-0.5349 -1.0737,-1.2005 -1.4439,-1.9941 -0.3724,-0.7986 -0.5717,-1.6001 -0.5994,-2.3993 -0.0283,-0.7987 0.107,-1.5662 0.4002,-2.2947 0.2926,-0.7273 0.7364,-1.3969 1.3369,-2.006 0.5983,-0.613 1.3375,-1.1224 2.22,-1.5333 0.8699,-0.4059 1.7246,-0.6453 2.5754,-0.7178 0.8479,-0.0769 1.6437,0.009 2.388,0.2485 0.7438,0.2389 1.419,0.6289 2.019,1.166 0.6045,0.5361 1.0947,1.2119 1.4751,2.027 z m -10.519,4.8949 c 0.2677,0.574 0.6215,1.0568 1.0619,1.4377 0.4415,0.3849 0.9407,0.651 1.4965,0.8077 0.5627,0.1591 1.1728,0.1993 1.8272,0.1251 0.6588,-0.0758 1.3443,-0.2824 2.049,-0.6107 0.7182,-0.3351 1.3211,-0.729 1.7976,-1.1836 0.4817,-0.455 0.8395,-0.9464 1.0744,-1.4773 0.2377,-0.5269 0.3526,-1.0743 0.3367,-1.6477 -0.009,-0.5717 -0.1471,-1.1445 -0.4132,-1.7145 -0.2677,-0.5745 -0.6175,-1.059 -1.0488,-1.4439 -0.4336,-0.3888 -0.926,-0.6634 -1.4847,-0.8241 -0.5586,-0.1613 -1.166,-0.2072 -1.826,-0.1353 -0.6565,0.0691 -1.3522,0.2757 -2.0784,0.6141 -0.7138,0.3329 -1.3143,0.7313 -1.7898,1.1893 -0.4799,0.4601 -0.8411,0.9526 -1.0828,1.4818 -0.2354,0.5315 -0.3526,1.0845 -0.3373,1.6579 0.0136,0.5802 0.1517,1.153 0.4177,1.7235 z m 17.4952,10.6299 -2.212,-3.5404 -9.4198,5.886 -0.8892,-1.4218 9.4203,-5.8861 -2.1927,-3.5093 1.2645,-0.7902 5.2934,8.4717 z m 5.9099,3.6781 c 0.592,0.6577 1.0199,1.3635 1.2809,2.1191 0.2637,0.7529 0.3628,1.517 0.2954,2.2919 -0.0639,0.7788 -0.2983,1.5418 -0.6945,2.2997 -0.3985,0.754 -0.9639,1.4638 -1.6947,2.1215 -0.7341,0.6611 -1.5022,1.1518 -2.2997,1.4632 -0.7953,0.3141 -1.582,0.4641 -2.3626,0.4465 -0.7783,-0.0141 -1.5271,-0.1924 -2.2488,-0.5332 -0.7245,-0.3384 -1.3783,-0.8343 -1.9641,-1.4852 -0.5898,-0.6549 -1.0143,-1.363 -1.2747,-2.1192 -0.2603,-0.7556 -0.3554,-1.5294 -0.2881,-2.3116 0.0674,-0.7811 0.2955,-1.5509 0.6917,-2.3088 0.3928,-0.7613 0.9515,-1.4643 1.6749,-2.1158 0.7132,-0.6425 1.4609,-1.1213 2.2527,-1.4394 0.7891,-0.3215 1.5753,-0.4721 2.357,-0.4608 0.7811,0.0114 1.5401,0.1868 2.2714,0.5253 0.7347,0.3357 1.4009,0.8383 2.0032,1.5068 z m -8.6279,7.7562 c 0.4239,0.4709 0.9033,0.8292 1.4354,1.0652 0.5349,0.2389 1.0902,0.347 1.6675,0.3345 0.5847,-0.0124 1.1796,-0.1528 1.7841,-0.4148 0.6074,-0.2644 1.2028,-0.6629 1.7807,-1.183 0.5887,-0.5304 1.05,-1.0834 1.3732,-1.6574 0.3272,-0.5762 0.5258,-1.1501 0.5954,-1.7269 0.0731,-0.5734 0.0233,-1.1303 -0.1596,-1.6743 -0.176,-0.5439 -0.4754,-1.0511 -0.8966,-1.5186 -0.4239,-0.471 -0.8999,-0.8321 -1.4252,-1.0743 -0.5281,-0.2451 -1.0794,-0.3634 -1.6607,-0.3538 -0.5813,0.009 -1.1756,0.1426 -1.7858,0.4041 -0.6074,0.2587 -1.2124,0.6595 -1.8085,1.1955 -0.5847,0.5269 -1.0426,1.0833 -1.3629,1.6607 -0.3249,0.5802 -0.5264,1.1564 -0.6023,1.7332 -0.0702,0.5773 -0.0209,1.1405 0.1619,1.6844 0.1823,0.5508 0.4823,1.0579 0.9034,1.5255 z m 13.8517,14.2841 -1.3777,-1.1564 1.2492,-3.3367 c 0.1092,-0.2977 0.1721,-0.6039 0.1885,-0.9062 0.0198,-0.3062 -0.003,-0.6045 -0.0685,-0.8965 -0.0651,-0.2921 -0.1755,-0.5672 -0.3272,-0.8281 -0.1585,-0.2604 -0.3577,-0.4953 -0.6,-0.6985 l -2.3767,-1.9947 -3.4652,4.1297 -1.2633,-1.0601 8.0981,-9.6513 4.2649,3.579 c 0.5208,0.4375 0.9532,0.879 1.2996,1.3216 0.3493,0.4455 0.5847,0.8977 0.7042,1.3574 0.1262,0.4584 0.1245,0.9316 -0.005,1.419 -0.1291,0.4879 -0.407,0.9849 -0.8321,1.4915 -0.2875,0.343 -0.6011,0.6084 -0.9413,0.8031 -0.3402,0.1953 -0.6996,0.3198 -1.0692,0.3747 -0.3747,0.0566 -0.7528,0.0431 -1.14,-0.0322 -0.3866,-0.0753 -0.7754,-0.2066 -1.1558,-0.3985 0.4783,0.7851 0.4981,1.7988 0.0583,3.048 z m -2.345,-10.9701 2.855,2.396 c 0.3888,0.3266 0.7516,0.583 1.0828,0.7687 0.3334,0.1822 0.6464,0.2869 0.9396,0.3147 0.2932,0.0271 0.5728,-0.0306 0.8422,-0.163 0.2694,-0.1393 0.5343,-0.3612 0.7975,-0.6747 0.9232,-1.0998 0.6951,-2.2273 -0.686,-3.386 l -3.0554,-2.5641 z m 18.473797,10.5507 -1.484697,-0.8575 c 0.155097,-0.3617 0.235497,-0.7251 0.239997,-1.0879 0.008,-0.3668 -0.0588,-0.7172 -0.199197,-1.0619 -0.1359,-0.3419 -0.3521,-0.6656 -0.6385,-0.9707 -0.2841,-0.3102 -0.6373,-0.5836 -1.0528,-0.8236 -0.5609,-0.3237 -1.1213,-0.5179 -1.6788,-0.5767 -0.5626,-0.0606 -1.1032,0.009 -1.6285,0.2116 -0.5298,0.1999 -1.0296,0.5242 -1.5096,0.9736 -0.4777,0.4449 -0.9209,1.0177 -1.3216,1.7122 -0.4076,0.7059 -0.6866,1.384 -0.8377,2.0287 -0.1495,0.6396 -0.1789,1.2412 -0.0827,1.792 0.094,0.5547 0.3108,1.0562 0.6385,1.5039 0.3317,0.4494 0.7681,0.8309 1.3132,1.1456 0.8915,0.5146 1.7133,0.7036 2.4661,0.5734 0.7574,-0.1273 1.3857,-0.5553 1.8945,-1.2684 l 1.4847,0.8575 c -0.3968,0.5564 -0.8485,0.9951 -1.3517,1.3069 -0.5077,0.3096 -1.0437,0.5117 -1.6143,0.5966 -0.5705,0.0849 -1.162,0.0549 -1.7688,-0.0854 -0.6113,-0.1433 -1.2186,-0.3861 -1.8164,-0.7313 -0.7743,-0.4472 -1.3958,-0.9832 -1.8695,-1.607 -0.476,-0.6294 -0.7919,-1.3126 -0.9475,-2.0586 -0.1597,-0.7483 -0.1563,-1.5373 0.002,-2.3711 0.163,-0.8315 0.4942,-1.6839 0.9923,-2.5471 0.4964,-0.8598 1.0669,-1.5684 1.7076,-2.1294 0.6453,-0.5581 1.3268,-0.9554 2.0524,-1.1875 0.7217,-0.2343 1.4711,-0.3022 2.2545,-0.2049 0.7766,0.0985 1.552,0.3685 2.3264,0.8157 0.5892,0.3401 1.092997,0.7443 1.511797,1.2118 0.4183,0.4675 0.737,0.9685 0.9538,1.4971 0.2207,0.5315 0.3317,1.0851 0.3305,1.6545 0.003,0.5723 -0.1222,1.1343 -0.3662,1.6879 z m 13.3197,1.3692 -7.3968,4.7512 -2.0847,4.9108 -1.5311,-0.6498 2.0841,-4.9108 -1.7207,-8.6216 1.8701,0.7941 1.1989,6.8104 5.7236,-3.8722 z m 10.1103,6.4046 -1.6636,-0.4144 c 0.0498,-0.3911 0.0266,-0.7618 -0.0685,-1.1122 -0.0934,-0.3549 -0.2547,-0.673 -0.4845,-0.9656 -0.2247,-0.2915 -0.5219,-0.5428 -0.8813,-0.7574 -0.3583,-0.2196 -0.7732,-0.3854 -1.239,-0.5015 -0.6283,-0.1568 -1.2204,-0.189 -1.7728,-0.0917 -0.557,0.0968 -1.0579,0.313 -1.5073,0.6521 -0.454,0.3385 -0.8451,0.7885 -1.1819,1.3522 -0.3368,0.5598 -0.605,1.2323 -0.7986,2.01 -0.1976,0.7907 -0.2791,1.5197 -0.2468,2.1809 0.0334,0.6565 0.1704,1.2429 0.4149,1.7456 0.2434,0.5077 0.5898,0.93 1.0279,1.2696 0.4432,0.3407 0.9673,0.5869 1.578,0.7398 0.9991,0.249 1.8413,0.2037 2.529,-0.1285 0.6929,-0.3317 1.1791,-0.9159 1.4711,-1.7417 l 1.6636,0.4149 c -0.2276,0.6441 -0.5411,1.1904 -0.9385,1.629 -0.4024,0.4376 -0.862,0.7789 -1.3873,1.0183 -0.5253,0.2389 -1.1021,0.373 -1.7241,0.4053 -0.6272,0.0311 -1.2781,-0.0351 -1.9477,-0.2021 -0.8677,-0.2162 -1.6126,-0.5609 -2.2398,-1.029 -0.6311,-0.4744 -1.1229,-1.0438 -1.4784,-1.7179 -0.3594,-0.6753 -0.574,-1.4349 -0.6509,-2.2799 -0.0725,-0.8446 0.0102,-1.7553 0.2513,-2.7226 0.2405,-0.9634 0.5932,-1.8017 1.0545,-2.5171 0.4664,-0.7143 1.012,-1.2843 1.646,-1.7071 0.6288,-0.4246 1.3307,-0.6963 2.1101,-0.8185 0.7743,-0.1194 1.5934,-0.0736 2.4611,0.1426 0.6605,0.1647 1.256,0.4143 1.7875,0.7483 0.5309,0.334 0.9752,0.7279 1.3296,1.1762 0.3588,0.45 0.6175,0.9515 0.7737,1.4994 0.1613,0.549 0.1953,1.1241 0.1127,1.723 z m 8.9867,9.709 -7.7477,-0.8145 1.3171,-12.5295 1.6403,0.1726 -1.1597,11.0329 6.1074,0.6419 z m 12.7151,-0.0329 -9.3908,0.1636 -0.2202,-12.5963 9.1027,-0.159 0.0261,1.4903 -7.4534,0.1302 0.0668,3.8433 6.9643,-0.1211 0.0266,1.5045 -6.9643,0.1217 0.0741,4.2531 7.7421,-0.1353 z m 24.9979,-5.333 -1.7287,0.4958 -2.0676,-2.902 c -0.1857,-0.257 -0.4047,-0.48 -0.6459,-0.6628 -0.2428,-0.1874 -0.5032,-0.3351 -0.7817,-0.4443 -0.2784,-0.1093 -0.5682,-0.1715 -0.8694,-0.1919 -0.3045,-0.0147 -0.6101,0.0192 -0.9147,0.107 l -2.9823,0.8552 1.4858,5.182 -1.5855,0.4545 -3.4725,-12.1107 5.3517,-1.5344 c 0.6538,-0.1874 1.2617,-0.2989 1.8226,-0.3385 0.5644,-0.0408 1.071,0.0175 1.5187,0.1754 0.4505,0.1512 0.8422,0.4172 1.1733,0.7976 0.3323,0.3798 0.5893,0.8881 0.7715,1.5237 0.1234,0.4302 0.1681,0.8388 0.1398,1.2294 -0.0288,0.3911 -0.1262,0.759 -0.2869,1.0958 -0.1636,0.3425 -0.3861,0.6487 -0.6645,0.9272 -0.2791,0.2785 -0.6051,0.5275 -0.977,0.7352 0.9181,0.0425 1.77,0.5932 2.5596,1.6562 z m -10.4052,-4.1897 3.5829,-1.0274 c 0.4879,-0.1403 0.9034,-0.2977 1.2424,-0.4681 0.3374,-0.1743 0.5994,-0.3752 0.7862,-0.6034 0.1868,-0.2275 0.2955,-0.4913 0.3362,-0.789 0.0346,-0.3011 -5e-4,-0.6447 -0.1137,-1.0386 -0.3957,-1.38 -1.4581,-1.8215 -3.1907,-1.3245 l -3.8337,1.0992 z m 15.1541,2.0439 -1.5679,0.6333 -4.7195,-11.681 1.5679,-0.6333 z m -2.4639,-12.2505 3.4143,-2.0518 c 3.6746,-2.2075 6.5794,-1.5339 8.7173,2.0241 2.1882,3.6424 1.4456,6.5676 -2.2285,8.7751 l -3.4148,2.0518 z m 7.1274,8.6596 1.9686,-1.183 c 0.8105,-0.4873 1.4241,-0.986 1.8294,-1.4965 0.4098,-0.5117 0.6639,-1.0398 0.7511,-1.5815 0.0877,-0.5417 0.0374,-1.1043 -0.1483,-1.6935 -0.1896,-0.5876 -0.4772,-1.2023 -0.8666,-1.8498 -0.3787,-0.6306 -0.7794,-1.1615 -1.1994,-1.5888 -0.4239,-0.4251 -0.8898,-0.7217 -1.4122,-0.8859 -0.5191,-0.1664 -1.0987,-0.1822 -1.7354,-0.0554 -0.6396,0.129 -1.3619,0.4381 -2.1645,0.9203 l -1.9686,1.183 z m 18.8497,-10.9225 -7.2995,5.911 -7.9283,-9.7911 7.0753,-5.7293 0.9379,1.1586 -5.7932,4.6912 2.4192,2.9875 5.4134,-4.3838 0.947,1.1699 -5.4135,4.3833 2.6773,3.3062 6.0174,-4.8735 z m 9.9308,-10.0181 -1.2265,1.3149 -3.2671,-1.4218 c -0.2915,-0.1251 -0.5938,-0.2033 -0.8949,-0.2355 -0.3045,-0.0362 -0.604,-0.0289 -0.8989,0.0209 -0.2948,0.0504 -0.575,0.1455 -0.8439,0.2836 -0.2689,0.1443 -0.5134,0.3311 -0.729,0.5626 l -2.1164,2.2692 3.9429,3.6763 -1.1252,1.2068 -9.2137,-8.5922 3.7968,-4.072 c 0.4642,-0.4975 0.9283,-0.9062 1.3879,-1.2288 0.4636,-0.3255 0.9272,-0.5366 1.3924,-0.6317 0.4647,-0.1025 0.9368,-0.0764 1.4168,0.0787 0.4805,0.1545 0.9622,0.4579 1.4462,0.909 0.3271,0.3051 0.5762,0.6322 0.7528,0.982 0.1766,0.3504 0.2824,0.7155 0.3181,1.0874 0.0368,0.3775 0.003,0.7545 -0.0917,1.1371 -0.0957,0.3821 -0.2473,0.7636 -0.459,1.1332 0.8094,-0.437 1.8226,-0.4036 3.0469,0.1013 z m -11.077,1.7677 2.542,-2.7259 c 0.3458,-0.3714 0.6209,-0.7206 0.8241,-1.041 0.1992,-0.3232 0.3204,-0.6305 0.3628,-0.922 0.043,-0.2915 0,-0.574 -0.1183,-0.8502 -0.1251,-0.2756 -0.3322,-0.5519 -0.6322,-0.8315 -1.05,-0.9792 -2.1877,-0.8105 -3.4171,0.5083 l -2.7197,2.9167 z m 16.4571,-8.0471 c -0.5185,0.7409 -1.0551,1.3205 -1.6154,1.7467 -0.5581,0.4234 -1.123,0.7098 -1.6874,0.8496 -0.5666,0.1438 -1.1263,0.1551 -1.6828,0.0396 -0.5592,-0.1188 -1.0907,-0.343 -1.6012,-0.6775 l 0.9249,-1.3205 c 0.4069,0.2388 0.8116,0.3747 1.2118,0.4041 0.4008,0.0306 0.7896,-0.0215 1.1632,-0.1579 0.3702,-0.1387 0.7268,-0.3555 1.0669,-0.6464 0.334,-0.2892 0.6493,-0.643 0.9351,-1.0511 0.2621,-0.3741 0.4647,-0.7449 0.6034,-1.1139 0.1432,-0.3663 0.2156,-0.7132 0.2219,-1.0387 0.009,-0.3294 -0.0515,-0.6339 -0.1772,-0.909 -0.1296,-0.2785 -0.3277,-0.514 -0.6028,-0.707 -0.2904,-0.2032 -0.5751,-0.3164 -0.8507,-0.3453 -0.2757,-0.0283 -0.5785,0.0385 -0.9028,0.1931 -0.3238,0.1539 -0.6889,0.399 -1.093,0.7245 -0.411,0.3271 -0.883,0.7409 -1.4281,1.252 -0.5485,0.5151 -1.0556,0.9221 -1.5237,1.2254 -0.4659,0.3 -0.9023,0.5004 -1.3161,0.6034 -0.4098,0.0996 -0.8031,0.1087 -1.1761,0.0238 -0.3731,-0.0849 -0.7483,-0.2564 -1.1219,-0.5179 -0.416,-0.2915 -0.7404,-0.6492 -0.9679,-1.0709 -0.2247,-0.4189 -0.3589,-0.8768 -0.3889,-1.3698 -0.03,-0.493 0.0414,-1.0171 0.2208,-1.5747 0.1772,-0.553 0.4596,-1.1111 0.8496,-1.6686 0.4092,-0.5842 0.8468,-1.0624 1.3154,-1.4394 0.4687,-0.377 0.9566,-0.6441 1.4643,-0.8004 0.5044,-0.1596 1.0183,-0.2026 1.5402,-0.1279 0.5207,0.0691 1.0341,0.2694 1.5373,0.5989 l -0.9328,1.3324 c -1.3398,-0.7511 -2.5618,-0.3379 -3.6627,1.2345 -0.5429,0.7743 -0.8146,1.4716 -0.8129,2.0869 -0.002,0.6192 0.2321,1.0896 0.694,1.4134 0.2134,0.1494 0.4245,0.2456 0.6266,0.2909 0.2043,0.0408 0.4279,0.0147 0.6713,-0.0815 0.2439,-0.0968 0.5258,-0.2632 0.8451,-0.5004 0.3158,-0.24 0.6939,-0.5609 1.1314,-0.9656 0.4319,-0.3974 0.8259,-0.7415 1.183,-1.0319 0.3504,-0.2892 0.6674,-0.5388 0.9464,-0.742 0.2666,-0.1942 0.5558,-0.3561 0.8717,-0.4817 0.3147,-0.1319 0.6385,-0.2134 0.9803,-0.2468 0.338,-0.0357 0.6906,-0.0108 1.0466,0.073 0.356,0.0849 0.7166,0.2519 1.0721,0.5004 0.4499,0.3153 0.7952,0.6996 1.0358,1.1524 0.2445,0.4551 0.3871,0.9424 0.4302,1.4728 0.0396,0.5287 -0.0295,1.0828 -0.2021,1.6618 -0.1721,0.5791 -0.4528,1.1502 -0.8428,1.7072 z"
     style="fill:#1b1918;fill-rule:evenodd;stroke:#1b1918;stroke-width:0.2835;stroke-linecap:butt;stroke-linejoin:miter;stroke-dasharray:none"
     id="path68" />
  <path
     d="m 208.07568,113.2415 c -0.3704,1.0384 0,3.0873 0,3.0873 l 4.2045,-0.8796 c 0,0 0.7675,0.3472 1.5437,-2.6488 2.5771,-9.9453 -2.7522,-7.9586 -5.7482,0.4411 z"
     style="fill:#008981;fill-rule:evenodd;stroke:#1b1918;stroke-width:1.9966;stroke-linecap:butt;stroke-linejoin:miter;stroke-dasharray:none"
     id="path70" />
  <g
     id="Layer1000"
     transform="translate(-30.624517,-48.89)">
    <g
       id="Layer1001">
      <path
         d="m 224.4436,184.7258 -8.5717,0.0383 -0.0866,-0.008 c -0.9343,-0.0822 -1.6948,-0.4895 -2.2137,-1.0956 -1.7173,0.9318 -3.3606,1.403 -5.6082,1.6013 -0.7667,0.0678 -1.5692,0.0922 -2.3611,0.0301 l -13.1904,0.0157 -0.0665,-0.004 c -2.1597,-0.1506 -3.4661,-1.777 -3.6901,-3.82 -0.1713,-1.5535 -0.6155,-5.7945 -1.3107,-7.1611 -0.4367,-0.8571 -1.6772,-0.945 -2.8129,-0.9073 l -1.9602,8.0634 c 0.0834,0.7285 1.7889,3.0363 2.2275,3.8338 l -9.4897,0.0163 -0.069,-0.005 c -2.4333,-0.1757 -4.1638,-2.1911 -3.3971,-4.6181 l 7.1185,-28.8303 1.4739,-7e-4 c 3.6004,-10e-4 7.1988,-0.1524 10.7992,-0.1537 5.5072,-0.003 11.4473,2.1472 11.4404,7.8445 l 1.6866,-0.0578 c 1.7086,-0.0583 3.419,-0.1342 5.1257,-0.2415 0.6952,-0.044 1.3986,0.02 1.9972,0.303 l 5.698,-0.1826 c 1.9965,-0.0646 3.9975,-0.0696 5.9934,-0.1537 1.0629,-0.0445 2.1208,0.165 2.7608,1.1119 0.8415,1.2448 0.1952,2.7018 -0.1524,3.9868 -1.5147,5.5994 -2.8481,11.2842 -3.6437,17.0342 l 0.7975,0.3953 1.6333,-6.1334 1.9708,0.7868 c 0.96,0.3834 6.0801,1.5147 6.7477,0.1425 -0.3558,-0.4236 -1.5486,-0.9895 -1.9332,-1.1558 -4.0019,-1.7274 -6.6705,-4.6946 -5.5975,-9.3171 1.7305,-7.4623 12.593,-8.6997 18.734,-7.0143 l 1.7857,0.49 -2.2156,8.6194 -2.0191,-0.8684 c -0.965,-0.4148 -2.2451,-0.7103 -3.2829,-0.8364 -0.4066,-0.049 -2.3197,-0.2033 -2.6987,0.2943 0.4273,0.3501 1.681,0.7937 2.0499,0.9424 3.8131,1.5398 6.2257,3.9599 5.8492,7.9448 l 1.9006,0.7586 c 0.96,0.3828 6.08,1.5147 6.7476,0.1425 -0.3557,-0.4236 -1.5485,-0.9895 -1.9332,-1.1558 -4.0013,-1.728 -6.6705,-4.6946 -5.5975,-9.3171 1.7217,-7.4253 12.4563,-8.6689 18.5884,-7.0532 l 1.7613,0.4643 -0.1939,0.8483 1.9734,-0.1958 c 4.7586,-0.4718 9.4764,-0.7937 14.2526,-0.9098 4.0402,-1.184 12.9564,-1.4525 16.2116,1.6226 2.1372,2.0186 1.9903,5.2041 1.3805,7.8395 -0.8446,3.6467 -1.7576,7.2784 -2.6285,10.9428 -0.5484,2.3065 0.497,3.0526 1.3397,5.2951 l -8.6119,-0.0113 -0.0671,-0.005 c -0.8735,-0.0634 -1.5492,-0.4198 -2.0186,-0.955 -1.9796,0.9468 -4.1481,1.3603 -6.3956,1.3622 -2.1365,0.002 -4.1657,-0.5779 -5.6754,-2.1516 -1.1953,-1.2455 -1.664,-2.7608 -1.6019,-4.367 -0.1619,0.8276 -0.3181,1.6558 -0.4687,2.4853 -0.1725,0.9431 1.6847,3.2038 2.1748,4.0201 l -3.2684,0.006 c -6.1391,0.008 -3.0934,0 -9.1804,0.008 l -3.7064,0.007 c 0.9356,-1.2197 3.1135,-3.254 3.468,-4.758 1.3402,-5.6941 2.7508,-11.3971 3.6794,-17.1759 l -1.3359,-0.9626 -1.3164,5.7632 -2.0756,-0.8922 c -0.965,-0.4148 -2.245,-0.7103 -3.2828,-0.8364 -0.4066,-0.049 -2.3197,-0.2033 -2.6987,0.2943 0.4273,0.3501 1.6809,0.7937 2.0499,0.9424 4.2328,1.7092 6.7395,4.5032 5.6214,9.3177 -1.5059,6.4854 -7.4712,8.2925 -13.4747,8.3 -2.0267,0.002 -4.1243,-0.1581 -6.0901,-0.6714 l -1.814,-0.4743 1.238,-4.8208 c -2.2632,4.598 -7.4441,5.9602 -12.6539,5.9665 -1.9313,0.002 -3.9304,-0.1431 -5.8159,-0.6024 z m -22.1442,-22.5319 c -0.9305,3.4535 -3.254,6.1077 -6.3794,7.4504 0.4882,0.7046 0.8684,1.504 1.1627,2.3423 0.9387,2.6799 1.4651,6.0073 1.8955,8.8114 0.064,0.4216 0.2535,0.7623 0.6344,0.9731 l 0.8552,0.4744 c -1.2856,-2.6667 -0.3551,-6.4484 0.2723,-9.1232 l 2.4233,-10.321 z m 71.6449,13.9107 c 0.8527,-2.3969 2.523,-4.2654 4.7116,-5.6804 2.8424,-1.8365 6.7966,-2.4364 10.2708,-2.6089 0.0188,-0.1218 0.0327,-0.2397 0.0352,-0.3345 -1.6829,-1.1357 -7.3444,0.0722 -9.1251,0.5384 l -3.8476,1.0077 3.6606,-7.97 -2.08,1.654 c -0.4913,0.3909 -0.5372,0.9469 -0.699,1.5216 -1.1081,3.921 -2.0838,7.8834 -2.9265,11.8721 z m 12.7851,0.7881 0.517,-2.0775 c -1.8956,0.2146 -4.0019,0.7975 -4.3652,2.3674 -0.0151,0.0646 -0.0402,0.1869 -0.0477,0.2892 0.2742,0.0923 0.7987,0.1123 0.9995,0.1123 1.105,-6e-4 1.9916,-0.2183 2.8964,-0.6914 z m -98.9707,-16.9802 -1.4018,5.6973 c 2.887,-0.0308 4.4983,-0.5422 5.2042,-3.5803 0.1004,-0.4342 0.2522,-1.2875 -0.1161,-1.6565 -0.6362,-0.6387 -2.3749,-0.6067 -3.6863,-0.4605 z m 25.6373,15.4435 c 0.9631,-4.1399 1.9375,-8.3106 2.747,-12.4782 l -3.2145,-1.115 c 0.0464,0.8709 -0.2742,1.767 -0.5007,2.619 -0.9023,3.3914 -1.6734,6.8167 -2.5387,10.2169 -0.0678,0.2673 -0.2723,1.2367 -0.1048,1.4996 0.5735,0.4355 2.4709,-0.2334 3.6117,-0.7423 z m 65.8723,-23.0596 c -0.3715,1.6032 -1.2568,2.9378 -2.4904,4.017 -1.3641,1.1928 -3.013,1.7688 -4.8226,1.7694 -1.6352,6e-4 -3.1336,-0.5616 -4.0685,-1.952 -0.8452,-1.2562 -0.9782,-2.7106 -0.6412,-4.1663 0.3714,-1.6013 1.2336,-2.9315 2.4722,-4.0063 1.3647,-1.1853 3.0306,-1.7393 4.832,-1.74 1.6352,-6e-4 3.173,0.5572 4.0885,1.9728 0.8075,1.2486 0.9619,2.6729 0.63,4.1054 z"
         style="fill:#1b1918;fill-rule:evenodd"
         id="path72" />
      <g
         id="Layer1002">
        <path
           d="m 294.6414,183.0495 -5.4199,-0.006 c -0.5971,-0.0436 -1.2185,-0.4695 -1.0261,-1.7434 -0.1065,0 -0.2136,0 -0.3026,0 -1.9843,1.4196 -4.3939,2.1431 -7.2237,2.1456 -1.8866,0.002 -3.3124,-0.5274 -4.3148,-1.5728 -1.0167,-1.0597 -1.3156,-2.455 -0.9109,-4.2002 0.5367,-2.3118 1.9544,-4.1946 4.2339,-5.6677 2.2831,-1.475 5.8614,-2.2595 10.7421,-2.3585 0.0803,-0.269 0.1607,-0.5392 0.2161,-0.7783 0.3785,-1.6357 0.2347,-2.2844 -0.4234,-2.8037 -2.2944,-1.8125 -8.3364,-0.5255 -10.8524,0.1332 l 2.1219,-4.6186 c 2.2303,-0.7148 4.3889,-1.0821 8.1066,-1.0834 2.7383,-6e-4 5.5781,0.5853 6.7922,1.7322 1.221,1.1531 1.5049,3.1685 0.8387,6.0463 -0.9788,4.2245 -2.0889,8.5872 -3.1193,13.0103 -0.1364,0.5866 -0.0274,1.3113 0.5416,1.7646 z m -6.2766,-4.9331 1.3212,-5.3072 c -5.1435,0.006 -8.0307,1.3243 -8.639,3.9486 -0.4177,1.8025 0.51,2.7097 2.7875,2.7085 1.7608,-10e-4 3.13,-0.4546 4.5303,-1.3499 z"
           style="fill:#ffffff;fill-rule:evenodd"
           id="path74" />
        <g
           id="Layer1003">
          <path
             d="m 277.435,151.871 c -0.268,1.1542 -0.905,2.1581 -1.8963,3.0255 -0.9802,0.857 -2.172,1.3032 -3.5845,1.3039 -1.1737,7e-4 -2.0028,-0.3724 -2.5054,-1.1201 -0.5027,-0.747 -0.6127,-1.6415 -0.3697,-2.6906 0.268,-1.1543 0.8827,-2.1511 1.8726,-3.0102 0.9781,-0.8493 2.1867,-1.2781 3.5992,-1.2788 1.1925,-7e-4 2.0327,0.3787 2.5068,1.1124 0.4769,0.7372 0.6182,1.6172 0.3773,2.6579 z"
             style="fill:#ffffff;fill-rule:evenodd"
             id="path76" />
          <path
             d="m 271.8293,183.4386 c -2.0466,0.002 -7.1515,0.005 -9.1806,0.007 0.7814,-0.5361 1.404,-1.6201 1.5964,-2.437 1.3455,-5.7144 2.7924,-11.6219 3.7096,-17.3351 0.0884,-0.5516 -0.0978,-1.3206 -0.5604,-1.6537 2.2215,-0.2204 6.763,-0.5479 9.0038,-0.7826 -0.9918,0.7889 -1.1145,1.6892 -1.3386,2.483 -1.5996,5.6603 -2.9364,11.4501 -3.9867,17.2374 -0.1501,0.8268 0.0299,1.7085 0.7565,2.4805 z"
             style="fill:#ffffff;fill-rule:evenodd"
             id="path78" />
        </g>
        <path
           d="m 241.9009,176.6022 c -1.0578,4.5551 -4.9337,6.8358 -11.6431,6.8439 -2.1873,0.002 -4.0732,-0.203 -5.6547,-0.6214 l 1.2415,-4.6628 c 2.2178,0.8853 8.5512,2.0403 9.3313,-1.3281 0.2559,-1.1045 -0.7614,-2.1624 -3.0732,-3.1611 -2.9862,-1.2894 -5.3994,-3.3298 -4.5097,-7.1639 1.4333,-6.1808 11.2359,-7.0425 16.4024,-5.6241 l -1.2072,4.6964 c -1.975,-0.8492 -7.8893,-2.2558 -8.6166,0.881 -0.4115,1.7776 2.0117,2.4999 3.2364,2.9942 3.2315,1.3044 5.4231,3.1381 4.4929,7.1459 z"
           style="fill:#ffffff;fill-rule:evenodd"
           id="path81" />
        <path
           d="m 198.6996,183.4174 -6.2237,0.008 c -1.5323,-0.1065 -1.8754,-1.4725 -1.9495,-2.1474 -0.4545,-4.1255 -0.9569,-6.7331 -1.5049,-7.8102 -1.1879,-2.3324 -3.8017,-1.8866 -5.9865,-1.8642 l -2.3492,9.6613 c -0.0323,0.9414 0.3138,1.612 1.2011,2.1736 l -6.5108,0.008 c -1.2409,-0.0903 -2.1568,-0.9402 -1.7222,-2.2234 l 6.7823,-27.4665 c 3.6019,-0.001 7.2006,-0.1519 10.7994,-0.1531 6.9572,-0.003 10.4433,2.9718 9.3363,7.7411 -0.8804,3.7924 -3.8435,6.8625 -8.3544,7.3295 -0.0274,0.1164 -0.0542,0.2329 -0.0797,0.3424 1.4308,0.4278 2.4787,1.6251 3.1685,3.5932 0.5816,1.6605 1.1992,4.4835 1.8106,8.4721 0.1127,0.7378 0.4969,1.734 1.5827,2.336 z m -5.3054,-20.9625 c 1.1463,-4.9368 -3.9362,-4.8384 -7.162,-4.2164 l -2.267,9.213 c 0.8293,0.0286 1.5217,0.0417 2.1076,0.0417 4.8222,-0.002 6.5425,-1.6817 7.3214,-5.0383 z"
           style="fill:#ffffff;fill-rule:evenodd"
           id="path83" />
        <path
           d="m 261.221,176.6022 c -1.0579,4.5551 -4.9337,6.8358 -11.6431,6.8439 -2.168,0.002 -4.0396,-0.1999 -5.613,-0.6108 l 1.1998,-4.6734 c 2.2178,0.8853 8.5512,2.0403 9.3313,-1.3281 0.2559,-1.1045 -0.7615,-2.1624 -3.0733,-3.1611 -2.9861,-1.2894 -5.3994,-3.3298 -4.5097,-7.1639 1.4215,-6.1303 11.0772,-7.0282 16.2755,-5.6584 l -1.0803,4.7307 c -1.9749,-0.8492 -7.8893,-2.2558 -8.6165,0.881 -0.4115,1.7776 2.0117,2.4999 3.2364,2.9942 3.2314,1.3044 5.4231,3.1381 4.4929,7.1459 z"
           style="fill:#ffffff;fill-rule:evenodd"
           id="path85" />
        <path
           d="m 220.9161,182.8595 -4.9654,0.0217 c -1.2639,-0.112 -1.3081,-1.2247 -1.244,-1.6673 0.0143,-0.1022 0.033,-0.1987 0.0535,-0.2883 -0.1245,0 -0.249,6e-4 -0.3561,6e-4 -2.3529,1.6294 -3.968,2.2278 -6.6061,2.4606 -7.2834,0.6432 -6.583,-4.0477 -5.225,-9.835 l 2.4313,-10.3592 c 0.1868,-0.6961 0.1027,-1.3256 -0.5778,-1.8044 1.5404,-0.0529 3.4363,-0.1344 5.179,-0.244 2.0323,-0.1277 1.4682,1.003 1.0031,2.7538 -0.8667,3.2589 -1.7882,7.2661 -2.5435,10.2372 -1.3492,5.3036 3.8242,4.2856 6.9629,2.5136 1.4887,-6.4118 2.422,-10.6195 2.9805,-13.5029 0.1351,-0.6992 -0.0218,-1.6207 -0.7659,-1.8784 1.5641,-0.0505 4.3765,-0.086 6.0121,-0.1545 1.7614,-0.0734 1.244,0.7621 0.7129,2.7265 -1.5372,5.684 -2.9002,11.5192 -3.7009,17.3376 -0.0772,0.5604 -0.0149,1.3524 0.6494,1.6824 z"
           style="fill:#ffffff;fill-rule:evenodd"
           id="path87" />
      </g>
    </g>
    <g
       id="Layer1004">
      <path
         d="m 182.1076,145.8321 -8.4537,-0.001 -0.0866,-0.008 c -0.9343,-0.0822 -1.6948,-0.4894 -2.2137,-1.0955 -1.7173,0.9318 -3.3606,1.403 -5.6082,1.6013 -2.5242,0.2233 -5.4407,-0.0276 -7.0495,-2.2639 -0.8615,-1.1972 -1.1231,-2.7194 -1.0873,-4.2993 -3.259,5.3603 -9.9741,6.6278 -16.4921,6.6297 -2.6598,0.001 -5.3296,-0.0659 -7.9888,-0.1349 l -2.3944,-0.0621 0.6262,-2.3122 c 2.6404,-9.7413 5.0009,-19.5679 6.85,-29.4917 l 0.2861,-1.5373 h 1.5642 c 3.3256,0 6.6467,-0.1524 9.9722,-0.1524 2.6404,0 4.9249,0.2704 7.1599,1.7631 2.2608,1.509 3.1022,3.808 2.9604,6.1748 l 1.9915,-0.0684 c 1.7086,-0.0583 3.419,-0.1343 5.1257,-0.2416 0.6952,-0.0439 1.3986,0.0201 1.9972,0.3031 2.688,0.7517 0.8025,5.3434 0.7341,5.6088 -0.8138,3.1304 -1.5322,6.2871 -2.3297,9.4213 -0.0678,0.2673 -0.2723,1.2367 -0.1048,1.4996 0.5735,0.4355 2.4709,-0.2334 3.6116,-0.7423 0.9632,-4.1399 1.9376,-8.3106 2.7471,-12.4782 -0.2504,-1.1928 -1.105,-2.3404 -2.0788,-3.3901 0.81,-0.0603 1.9777,-0.1067 2.7514,-0.1224 l 6.3605,-0.133 c 1.0629,-0.0446 2.1208,0.165 2.7608,1.1118 0.017,0.0251 0.0339,0.0509 0.0496,0.0766 l 3.126,-0.0239 c 0.2472,-0.9574 0.4969,-1.9106 0.7485,-2.8737 7e-4,-0.006 0,-0.0107 -6e-4,-0.0163 l -1.5893,-2.764 c 3.5231,-0.7981 3.5564,-0.8389 7.0946,-1.0949 4.2002,-0.3055 4.226,2.0192 3.3143,5.2757 l -0.406,1.4494 5.6728,-0.0289 -0.0182,0.0659 1.7331,-0.0132 c 0.2472,-0.9574 0.4969,-1.9106 0.7485,-2.8737 7e-4,-0.006 0,-0.0107 -6e-4,-0.0163 l -1.9677,-3.035 c 3.5232,-0.4192 3.9348,-0.5679 7.473,-0.8239 4.2002,-0.3055 4.2259,2.0192 3.3142,5.2757 l -0.4059,1.4494 5.6728,-0.0289 -2.2149,8.0277 -5.2123,0.0314 c -0.3991,1.627 -0.7881,3.2571 -1.1658,4.8891 -0.2497,1.0761 -1.2066,4.7373 -1.1137,5.7557 0.8884,0.3978 4.778,-0.4254 5.8447,-0.7034 -0.773,2.0618 -0.517,3.7164 -2.3668,5.0962 -3.1787,2.3718 -9.9439,2.7759 -12.1576,-0.4079 -1.6941,-2.4395 -0.987,-6.5393 -0.3457,-9.2223 l 1.2976,-5.4294 -2.8405,0.0257 0.008,-0.0263 -3.7089,0.0226 c -0.399,1.627 -0.7881,3.2571 -1.1658,4.8891 -0.2497,1.0761 -1.2066,4.7373 -1.1137,5.7557 0.8885,0.3978 4.5076,-0.3715 5.5743,-0.6494 -0.5358,2.3165 -0.3677,3.9147 -2.4088,5.2618 -2.4866,1.6433 -6.7565,2.2055 -9.6189,1.051 -1.9157,-0.5032 -2.8305,-1.9476 -3.1718,-4.2648 -0.3244,-2.2062 0.1531,-4.7656 0.5998,-6.636 l 1.2976,-5.4294 -1.787,0.0163 c -1.0171,4.0785 -1.8943,8.199 -2.4973,12.3546 -0.1694,1.1759 0.8446,3.0175 2.0976,4.0132 z m -22.8984,-14.5688 1.7362,-7.3952 -1.2424,-0.8735 c -0.5678,1.7751 -1.6213,3.4517 -2.9679,4.7097 1.26,0.8803 2.0857,2.0976 2.4741,3.559 z m -15.2165,1.8014 -1.2348,5.1771 c 2.545,-0.003 5.4834,-0.4317 6.0738,-2.9741 0.0935,-0.4041 0.2039,-1.0705 -0.1017,-1.4231 -0.7109,-0.8195 -3.0588,-0.8584 -4.7373,-0.7799 z m 2.993,-12.8434 -0.571,2.6485 c 1.1803,0 2.407,-0.0904 3.2848,-0.4311 0.9073,-0.352 1.2404,-1.6489 0.1857,-1.9928 -0.7461,-0.2441 -1.8686,-0.2516 -2.8995,-0.2246 z m -86.4153,-2.8349 c 0.4412,-1.6131 1.7626,-3.264 2.8707,-4.4405 -4.6696,0 -9.341,0 -14.0105,0 0.3388,0.9124 1.3572,2.6623 1.1746,3.633 -1.5938,8.3822 -3.6455,16.679 -5.9088,24.9037 -0.5904,2.1434 -1.3892,3.4793 -2.9647,4.9136 4.709,-0.001 9.42,-0.003 14.1291,-0.006 -0.4449,-0.935 -1.2788,-2.9874 -1.0724,-4.0678 1.6019,-8.381 3.5176,-16.7086 5.782,-24.9358 z m -0.6425,4.3866 1.0115,2.8819 c -0.2504,5.7952 -1.8811,11.5301 -3.4993,17.0662 -0.5873,2.0084 -0.0458,4.1832 2.2996,4.6394 l 0.1788,0.0345 h 0.182 c 2.1409,-0.001 4.2811,-0.002 6.422,-0.003 l 3.3977,-0.004 c -0.4474,-0.5854 -2.3699,-3.0262 -2.2388,-3.6455 0.8258,-3.8413 1.708,-7.6732 2.5971,-11.5007 1.2957,-1.9878 3.3481,-2.2946 5.5021,-1.3377 l 1.568,0.6971 c -0.3174,0.8558 -0.5716,1.7412 -0.7585,2.6491 -1.3033,6.3241 0.3589,12.9789 7.8281,13.1402 2.6516,0.0571 5.2926,-0.4637 7.628,-1.7538 3.1988,-1.7669 5.9734,-4.6789 7.5941,-8.0515 -0.4141,1.7268 -0.854,3.446 -1.2969,5.1596 -0.5177,1.9953 0.2967,4.209 2.5355,4.6193 l 0.1688,0.0308 h 0.1719 c 2.0355,-0.001 4.0716,-0.002 6.1071,-0.003 l 3.4391,-0.003 c -0.7473,-0.6827 -2.3273,-2.769 -2.107,-3.7258 0.9945,-4.3213 1.9639,-8.6483 2.9195,-12.9783 0.7467,-0.4286 1.8567,-0.9839 2.2796,-0.8201 0.4938,0.5089 0.042,2.966 -0.0948,3.5589 l -2.1722,9.4213 c -0.4644,2.0147 0.5866,4.3457 2.8342,4.5365 l 0.0803,0.007 8.5805,-0.006 c -0.4085,-0.8025 -1.8918,-2.8806 -1.6923,-3.7597 0.9318,-4.1199 1.9351,-8.2222 2.8888,-12.337 1.3403,-5.7814 0.2887,-10.0487 -6.5399,-10.0487 -2.2708,0 -4.29,0.5578 -6.1887,1.5328 -0.0175,-0.0276 -0.0357,-0.0558 -0.0552,-0.0834 -0.6161,-0.9073 -1.6376,-1.1727 -2.6754,-1.0767 -2.8035,0.3263 -5.9854,0.6525 -8.7895,0.9782 0.854,0.8947 1.8153,1.8359 1.8021,2.8744 -0.15,1.4808 -0.3533,2.9546 -0.5974,4.4216 -0.0784,-1.7788 -0.5126,-3.5225 -1.4895,-5.0541 -3.0746,-4.8126 -9.7363,-4.7505 -14.3632,-2.3806 -2.5374,1.2995 -4.6231,3.2 -6.1616,5.4865 0.5214,-1.0893 1.0466,-2.1773 1.5718,-3.2647 l 0.8759,-1.8152 -1.8704,-0.7498 c -3.2396,-1.2995 -6.1748,-1.051 -8.7493,0.5177 -0.6645,-0.8866 -1.7236,-1.1144 -2.7815,-1.0109 -2.5701,0.256 -5.7601,0.4982 -8.3427,1.1602 z m 32.262,10.9541 c 1.6766,-7.5966 -5.4281,-5.6929 -6.8889,0.5917 -2.0028,8.6187 5.6076,5.2179 6.8889,-0.5917 z"
         style="fill:#1b1918;fill-rule:evenodd"
         id="path91" />
      <g
         id="Layer1005">
        <path
           d="m 195.4249,141.3367 -0.3749,0.9987 c -1.4974,2.1126 -8.3575,3.2856 -10.1612,0.6905 -0.9209,-1.3256 -0.9694,-3.9095 -0.061,-7.7112 l 1.8573,-7.7704 -2.7321,0.0243 1.1985,-4.2096 3.2059,-0.0236 c 0.16,-0.6295 0.528,-2.0597 1.1108,-4.2905 0.1631,-0.6233 -0.0349,-1.6369 -0.8113,-2.0622 1.0859,-0.1288 3.5259,-0.3106 4.6267,-0.3903 2.13,-0.1551 2.1456,0.1046 1.3655,2.8902 l -1.079,3.8522 5.6833,-0.0287 -1.1749,4.2588 -5.2519,0.0317 c -0.5024,2.0136 -1.0136,4.1299 -1.5248,6.3377 -0.6263,2.7016 -1.4146,5.8023 -1.0846,6.7194 0.8206,2.2838 3.6467,1.0902 5.2077,0.683 z"
           style="fill:#ffffff;fill-rule:evenodd"
           id="path93" />
        <path
           d="m 157.326,135.4442 c -1.3991,6.0351 -6.3701,9.0654 -16.2101,9.0685 -1.706,7e-4 -4.349,-0.0417 -7.9391,-0.1344 2.6493,-9.7771 5.0271,-19.6787 6.8831,-29.6388 3.6835,0 6.2917,-0.1526 9.972,-0.1526 3.1349,0 4.6728,0.4832 6.1148,1.4464 4.6492,3.1038 0.9321,10.5759 -3.2252,11.8124 -0.0274,0.1164 -0.0541,0.2329 -0.0797,0.3418 3.9132,0.6513 5.4075,3.275 4.4842,7.2567 z m -6.6609,0.2491 c 1.1681,-5.0308 -4.971,-4.6871 -8.1819,-4.4119 l -2.0914,8.7659 c 3.8877,0.1855 9.2117,0.2198 10.2733,-4.354 z m -0.1955,-17.0369 c -1.4544,-0.4751 -3.4643,-0.287 -5.0127,-0.2746 l -1.3574,6.2954 c 1.8019,0.0909 4.4599,0.2229 6.2805,-0.4838 2.5944,-1.0062 2.8043,-4.6516 0.0896,-5.537 z"
           style="fill:#ffffff;fill-rule:evenodd"
           id="path95" />
        <path
           d="m 120.1268,144.5028 -5.5426,0.003 c -0.9825,-0.0834 -1.3872,-1.2502 -1.1593,-2.2383 l 2.1723,-9.421 c 1.2147,-5.2661 -0.6438,-7.6632 -5.6839,-4.3502 -1.1015,4.999 -2.1319,9.584 -3.0895,13.745 -0.1768,0.7702 -0.1912,1.635 0.5018,2.2682 -2.0285,0.001 -4.0788,0.002 -6.1073,0.003 -1.2085,-0.2216 -1.2515,-1.5291 -1.0529,-2.2962 1.5118,-5.8421 2.9961,-11.8236 3.577,-17.911 0.0405,-0.4234 -0.033,-0.9309 -0.6232,-1.2745 l 5.8769,-0.5473 c 1.6382,-0.1513 0.9072,1.1929 0.8474,2.3224 0.1245,0 0.2491,0 0.3736,0 2.4793,-1.7907 4.8397,-2.6867 7.525,-2.6867 5.2214,0 5.8639,2.7489 4.7065,7.7417 -0.9545,4.1187 -1.9582,8.2199 -2.8909,12.3461 -0.1724,0.7633 0.006,1.7732 0.5691,2.2956 z"
           style="fill:#ffffff;fill-rule:evenodd"
           id="path97" />
        <path
           d="m 99.0152,132.6617 c -0.9283,4.3908 -4.1934,8.2915 -7.8793,10.3275 -2.2109,1.221 -4.5757,1.5646 -6.677,1.5198 -4.3597,-0.094 -7.5967,-3.2544 -6.0252,-10.8785 2.3791,-11.5428 15.6285,-15.2119 19.7285,-8.7877 1.1475,1.7988 1.5784,4.3889 0.853,7.8189 z m -4.9866,0.4707 c 2.1686,-9.83 -8.4459,-9.3412 -10.561,-0.2397 -2.5278,10.8779 8.6327,8.9807 10.561,0.2397 z"
           style="fill:#ffffff;fill-rule:evenodd"
           id="path99" />
        <path
           d="m 79.1006,122.8529 c -0.858,1.777 -1.7154,3.5539 -2.5559,5.3315 -3.0696,-1.3641 -6.2325,-0.7322 -8.03,2.3324 -1.1226,4.829 -2.0173,8.7759 -2.6736,11.8298 -0.1675,0.7789 -0.0224,1.6631 0.6799,2.163 -2.0104,0.001 -4.3932,0.002 -6.4217,0.003 -1.2415,-0.2415 -1.0772,-1.4936 -0.8524,-2.2632 1.7141,-5.8645 3.4076,-11.8977 3.5913,-18.0107 0.0118,-0.4071 -0.1855,-0.8704 -0.7814,-1.1425 1.6618,-0.1768 4.3939,-0.4103 6.3981,-0.6101 1.8853,-0.185 1.1431,1.2944 0.7889,2.8298 0.1064,0 0.231,0 0.3555,0 2.6991,-3.0378 5.7916,-3.9506 9.5013,-2.4631 z"
           style="fill:#ffffff;fill-rule:evenodd"
           id="path101" />
        <path
           d="m 53.421,144.5096 c -2.135,0.001 -6.0955,0.002 -8.2305,0.003 0.6095,-0.5553 1.0858,-1.6779 1.3206,-2.5309 2.2719,-8.2548 4.3471,-16.6565 5.9429,-25.0513 0.1327,-0.6974 0.0498,-1.4551 -0.3598,-2.102 2.1343,0 5.7188,0 7.8531,0 -0.5697,0.6046 -1.0036,1.3729 -1.1923,2.059 -2.272,8.2573 -4.2096,16.6776 -5.8159,25.0818 -0.1613,0.8468 0.079,1.6942 0.4819,2.5403 z"
           style="fill:#ffffff;fill-rule:evenodd"
           id="path103" />
        <path
           d="m 211.974,141.3367 -0.3748,0.9987 c -1.4974,2.1126 -8.3575,3.2856 -10.1612,0.6905 -0.9209,-1.3256 -0.9695,-3.9095 -0.061,-7.7112 l 1.8572,-7.7704 -2.732,0.0243 1.1985,-4.2096 3.2059,-0.0236 c 0.16,-0.6295 0.528,-2.0597 1.1108,-4.2905 0.1631,-0.6233 -0.0349,-1.6369 -0.8113,-2.0622 1.0859,-0.1288 3.5259,-0.3106 4.6267,-0.3903 2.13,-0.1551 2.1456,0.1046 1.3654,2.8902 l -1.079,3.8522 5.6834,-0.0287 -1.1749,4.2588 -5.2519,0.0317 c -0.5024,2.0136 -1.0136,4.1299 -1.5248,6.3377 -0.6264,2.7016 -1.4146,5.8023 -1.0846,6.7194 0.8206,2.2838 3.6467,1.0902 5.2076,0.683 z"
           style="fill:#ffffff;fill-rule:evenodd"
           id="path105" />
        <path
           d="m 178.6981,143.9262 -4.9654,0.0218 c -1.2639,-0.112 -1.3082,-1.2247 -1.244,-1.6674 0.0143,-0.1021 0.033,-0.1986 0.0535,-0.2882 -0.1245,0 -0.249,6e-4 -0.3561,6e-4 -2.3529,1.6294 -3.968,2.2277 -6.6061,2.4606 -7.2834,0.6432 -6.583,-4.0477 -5.225,-9.835 l 2.4313,-10.3592 c 0.1868,-0.6961 0.1027,-1.3256 -0.5778,-1.8044 1.5404,-0.0529 3.4363,-0.1345 5.179,-0.244 2.0323,-0.1277 1.4682,1.003 1.0031,2.7538 -0.8667,3.2588 -1.7882,7.2661 -2.5435,10.2372 -1.3492,5.3035 3.8242,4.2855 6.9629,2.5136 1.4887,-6.4118 2.422,-10.6195 2.9805,-13.5029 0.1351,-0.6992 -0.0218,-1.6207 -0.7659,-1.8785 1.5641,-0.0504 4.3765,-0.0859 6.0121,-0.1544 1.7614,-0.0734 1.244,0.7621 0.7129,2.7265 -1.5373,5.6839 -2.9002,11.5192 -3.7009,17.3376 -0.0772,0.5604 -0.0149,1.3523 0.6494,1.6823 z"
           style="fill:#ffffff;fill-rule:evenodd"
           id="path107" />
      </g>
    </g>
  </g>
</svg>
