<svg width="48" height="48" viewBox="0 0 48 48" fill="none" xmlns="http://www.w3.org/2000/svg">
<path d="M42 0H6C2.68629 0 0 2.68629 0 6V42C0 45.3137 2.68629 48 6 48H42C45.3137 48 48 45.3137 48 42V6C48 2.68629 45.3137 0 42 0Z" fill="#306599"/>
<path d="M38.6716 9.29053C35.6615 7.07706 31.3196 7.21289 27.8345 7.99515C25.0896 8.61195 22.4758 9.80111 20.0606 11.3745L16.3417 6.45054C15.8263 5.66544 15.0023 5.25 13.9579 5.25C11.7265 5.25 8.7866 7.1743 7.40534 9.53842C6.5257 11.0464 6.41664 12.5433 7.13487 13.8081L11.475 19.5779C9.00546 22.8918 7.14803 26.5144 6.1333 29.9393C8.02723 26.4644 9.87822 23.236 12.0555 20.3507L13.132 21.7813C8.21483 29.6272 7.67777 37.809 12.3095 41.2182C17.6795 45.1661 27.9316 41.2197 35.2014 32.4041C42.4818 23.5886 44.0412 13.2383 38.6716 9.29053ZM13.0399 12.4695L19.9977 21.809C19.9995 21.8298 19.9922 21.8507 20.0001 21.8715C20.2159 22.4764 20.325 23.1096 20.325 23.7544C20.325 25.1345 19.8262 26.4303 18.9191 27.4523L18.505 27.2799L10.4824 16.6184C10.6392 15.0648 11.8083 13.5354 13.0398 12.4695H13.0399ZM20.6489 22.317C22.3945 23.2158 24.5728 23.1831 26.3074 22.253L27.2415 28.2422C26.3466 28.5597 25.6204 29.2308 25.2311 30.0889L19.398 27.653C20.3155 26.5603 20.8198 25.1998 20.8198 23.7542C20.8198 23.2673 20.7626 22.7866 20.6489 22.317ZM27.0765 20.7588C27.0637 20.6791 27.0314 20.6025 26.9827 20.5379L22.5158 14.6243C23.7717 13.9743 25.0572 13.4527 26.3388 13.0975C27.1891 12.8529 28.0309 12.6914 28.8507 12.6179C30.2725 12.4757 31.6005 12.5855 32.7403 12.9816C33.5211 13.2525 34.1618 13.6413 34.6637 14.1244C36.3207 15.5207 37.0336 17.7586 36.5938 20.2491C35.52 24.9937 32.8655 28.078 28.7738 31.644L27.0765 20.7588ZM26.1181 21.0344L26.2257 21.7263C24.4764 22.7317 22.2187 22.7135 20.4998 21.6539L13.4224 12.1552C15.0793 10.8576 16.8883 10.2335 18.1538 10.4891L26.1181 21.0344ZM8.26031 10.0376C9.44139 8.0146 12.104 6.23915 13.9579 6.23915C14.6627 6.23915 15.1863 6.49302 15.5334 7.02066L15.7105 7.25448C14.3708 7.23848 12.729 7.89372 11.186 9.1137C9.84814 10.1697 8.48186 11.7999 8.15199 13.5208L7.96156 13.2681C7.31619 12.1242 7.76827 10.8803 8.26031 10.0376ZM34.7385 31.9138C28.0415 40.016 18.3521 43.0892 13.5608 39.5706C9.26291 36.4135 9.57244 29.6064 13.7828 22.6465L17.7956 27.9819C17.848 28.0522 17.9186 28.1074 17.9998 28.1416L28.1238 32.37C28.1852 32.3953 28.2501 32.4081 28.3148 32.4081C28.4233 32.4081 28.5313 32.3716 28.6193 32.3025C28.7607 32.192 28.8308 32.0142 28.8033 31.837L28.8019 31.8335C35.7723 28.1952 41.7554 15.536 33.7111 12.0351C30.5981 10.9542 26.1935 11.8543 22.1061 14.0835L20.8185 12.3791C21.4616 11.9987 22.1212 11.6293 22.8255 11.2871C26.9965 9.20867 31.3481 8.60728 34.6273 9.41841C35.7309 9.62441 36.729 10.037 37.5886 10.6713C38.8517 11.5955 39.6897 12.903 40.1455 14.4717C40.4111 15.3702 40.5385 16.3505 40.5385 17.3919C40.5385 21.6915 38.7492 27.0571 34.738 31.9138L34.7385 31.9138Z" fill="white"/>
</svg>
