<svg width="48" height="48" viewBox="0 0 48 48" fill="none" xmlns="http://www.w3.org/2000/svg">
<path d="M42 0H6C2.68629 0 0 2.68629 0 6V42C0 45.3137 2.68629 48 6 48H42C45.3137 48 48 45.3137 48 42V6C48 2.68629 45.3137 0 42 0Z" fill="#168DE2"/>
<path d="M30.4763 23.8279C30.2634 19.6827 27.1855 17.1895 23.4686 17.1895H23.3287C19.0395 17.1895 16.6611 20.5623 16.6611 24.394C16.6611 28.6833 19.5384 31.393 23.3125 31.393C27.5189 31.393 30.2855 28.3111 30.4857 24.6662L30.4762 23.8279H30.4763ZM23.3495 13.4791C26.2154 13.4791 28.9103 14.746 30.8885 16.7297V16.7371C30.8885 15.7851 31.5294 15.0671 32.4189 15.0671L32.6441 15.0656C34.0352 15.0656 34.3217 16.3825 34.3217 16.7991L34.328 31.6039C34.2296 32.5736 35.3285 33.0742 35.9374 32.4517C38.315 30.0086 41.1587 19.8919 34.4595 14.0316C28.2161 8.56676 19.8386 9.46691 15.3833 12.538C10.6466 15.8046 7.61645 23.0353 10.5602 29.826C13.7696 37.2323 22.9525 39.4415 28.4105 37.2377C31.1742 36.1223 32.4502 39.8579 29.58 41.0788C25.2435 42.9257 13.1718 42.7393 7.5331 32.9709C3.72314 26.3756 3.92503 14.7708 14.0304 8.75879C21.7602 4.15806 31.952 5.43142 38.0974 11.8494C44.5211 18.5587 44.1458 31.1231 37.881 36.0071C35.042 38.2267 30.8252 36.0674 30.8518 32.8336L30.823 31.7765C28.8463 33.7379 26.2153 34.8823 23.3495 34.8823C17.6871 34.8823 12.7046 29.9013 12.7046 24.2379C12.7046 18.5201 17.6871 13.479 23.3495 13.479" fill="white"/>
</svg>
