<svg width="48" height="48" viewBox="0 0 48 48" fill="none" xmlns="http://www.w3.org/2000/svg">
<path d="M42 0H6C2.68629 0 0 2.68629 0 6V42C0 45.3137 2.68629 48 6 48H42C45.3137 48 48 45.3137 48 42V6C48 2.68629 45.3137 0 42 0Z" fill="#F48420"/>
<path d="M24.0003 24.232C29.2419 24.232 33.4905 19.9828 33.4905 14.741C33.4905 9.49937 29.2419 5.25 24.0003 5.25C18.7579 5.25 14.5093 9.49937 14.5093 14.741C14.5093 19.9827 18.7579 24.232 24.0003 24.232ZM24.0003 10.0719C26.5785 10.0719 28.6694 12.162 28.6694 14.741C28.6694 17.32 26.5785 19.4102 24.0003 19.4102C21.4213 19.4102 19.3303 17.32 19.3303 14.741C19.3303 12.162 21.4213 10.0719 24.0003 10.0719Z" fill="white"/>
<path d="M30.9485 24.9719C28.2821 27.0729 24.0005 27.0729 24.0005 27.0729C24.0005 27.0729 19.7179 27.0729 17.052 24.9719C15.0795 23.418 13.5955 24.313 13.0598 25.3901C12.1257 27.2664 13.1808 28.1735 15.5631 29.7024C17.5978 31.0088 20.393 31.4968 22.1981 31.679L20.6908 33.186C18.5682 35.3078 16.5196 37.3569 15.0984 38.7784C14.2484 39.6279 14.2484 41.0068 15.0984 41.8562L15.3548 42.1124C16.2051 42.9624 17.5829 42.9624 18.4324 42.1124L24.0256 36.5201C26.1482 38.6426 28.1968 40.6912 29.618 42.1124C30.468 42.9624 31.8458 42.9624 32.6961 42.1124L32.9525 41.8562C33.802 41.0055 33.802 39.6279 32.9525 38.7784L27.3589 33.1852L25.8475 31.6738C27.6542 31.4882 30.4199 30.9979 32.437 29.7022C34.8188 28.1734 35.8746 27.2663 34.9403 25.39C34.4048 24.3131 32.9199 23.418 30.9485 24.9719Z" fill="white"/>
</svg>
