<svg width="24" height="24" viewBox="0 0 24 24" fill="none" xmlns="http://www.w3.org/2000/svg">
<rect width="24" height="24" fill="white"/>
<path d="M2.19998 11.1999C1.99998 13.5999 2.69998 15.5999 4.19998 17.3999C5.69998 19.1999 7.69998 19.9999 10.1 19.9999H20.1C20.6 19.9999 21.1 19.7999 21.5 19.3999C21.9 18.9999 22.1 18.4999 22.1 17.9999V17.1999C22.1 16.5999 22 15.8999 21.9 14.9999H13.7C12.7 14.9999 11.9 14.5999 11.2 13.8999C10.5 13.1999 10.1 12.2999 10.1 11.3999C10.1 9.79992 10.8 8.69992 12.3 8.09992L17.1 5.99992C15.4 4.79992 13.4 4.09992 11.1 3.99992C8.89998 3.79992 6.89998 4.49992 5.09998 5.89992C3.29998 7.29992 2.39998 8.99992 2.19998 11.1999ZM12.1 11.3999C12.1 11.7999 12.3 12.1999 12.6 12.4999C12.9 12.7999 13.3 12.9999 13.7 12.9999H21.5C20.9 10.7999 20 8.99992 18.7 7.59992L13.1 9.89992C12.4 10.0999 12.1 10.5999 12.1 11.3999Z" fill="#01A0E2"/>
</svg>
