<svg width="48" height="48" viewBox="0 0 48 48" fill="none" xmlns="http://www.w3.org/2000/svg">
<path d="M42 0H6C2.68629 0 0 2.68629 0 6V42C0 45.3137 2.68629 48 6 48H42C45.3137 48 48 45.3137 48 42V6C48 2.68629 45.3137 0 42 0Z" fill="#00ABF1"/>
<path d="M42.75 12.3691C41.3703 12.9814 39.8881 13.3946 38.3318 13.5808C39.9195 12.6286 41.1396 11.1204 41.7143 9.32477C40.2278 10.2064 38.5809 10.846 36.828 11.1912C35.4254 9.69566 33.4252 8.76172 31.2131 8.76172C26.9639 8.76172 23.5188 12.2068 23.5188 16.4555C23.5188 17.0583 23.587 17.6451 23.7184 18.209C17.3239 17.8873 11.6555 14.8251 7.86085 10.1696C7.19847 11.306 6.8192 12.6271 6.8192 14.038C6.8192 16.7072 8.17696 19.0616 10.2415 20.4413C8.98097 20.4012 7.79489 20.0554 6.75683 19.4793C6.75643 19.511 6.75643 19.5434 6.75643 19.5759C6.75643 23.3033 9.40864 26.4125 12.9278 27.1206C12.2821 27.2954 11.6022 27.3901 10.9014 27.3901C10.4049 27.3901 9.92342 27.3405 9.45412 27.2517C10.4329 30.3076 13.2745 32.5323 16.6404 32.5944C14.008 34.6583 10.6905 35.8884 7.08503 35.8884C6.46466 35.8884 5.85228 35.8518 5.25 35.7799C8.65556 37.9637 12.6994 39.2376 17.044 39.2376C31.195 39.2376 38.9338 27.5143 38.9338 17.3478C38.9338 17.0134 38.9261 16.6819 38.9118 16.3517C40.4139 15.2667 41.7191 13.9123 42.75 12.3691Z" fill="white"/>
</svg>
