<svg width="48" height="48" viewBox="0 0 48 48" fill="none" xmlns="http://www.w3.org/2000/svg">
<path d="M42 0H6C2.68629 0 0 2.68629 0 6V42C0 45.3137 2.68629 48 6 48H42C45.3137 48 48 45.3137 48 42V6C48 2.68629 45.3137 0 42 0Z" fill="#4C75A3"/>
<path fill-rule="evenodd" clip-rule="evenodd" d="M23.5978 34.6078H25.8391C25.8391 34.6078 26.5159 34.533 26.8619 34.1607C27.1804 33.8185 27.1702 33.1762 27.1702 33.1762C27.1702 33.1762 27.126 30.1686 28.5221 29.7259C29.8983 29.2895 31.6652 32.6325 33.538 33.9178C34.9543 34.8904 36.0306 34.6775 36.0306 34.6775L41.0386 34.6078C41.0386 34.6078 43.6577 34.446 42.4158 32.3862C42.3142 32.218 41.692 30.8628 38.6924 28.0784C35.5515 25.1633 35.9725 25.6352 39.7553 20.5936C42.0587 17.5233 42.98 15.6494 42.6919 14.8463C42.4176 14.0815 40.7234 14.2832 40.7234 14.2832L35.0845 14.3185C35.0845 14.3185 34.6667 14.2614 34.3565 14.4468C34.0537 14.6284 33.8592 15.0518 33.8592 15.0518C33.8592 15.0518 32.966 17.4277 31.7762 19.4482C29.2657 23.7114 28.2616 23.9371 27.8512 23.6718C26.8965 23.0548 27.1353 21.1936 27.1353 19.8708C27.1353 15.739 27.7619 14.0161 25.9145 13.5704C25.3015 13.4224 24.8502 13.3242 23.2825 13.3084C21.2708 13.288 19.5679 13.3148 18.6039 13.7869C17.9625 14.1018 17.4674 14.8011 17.7693 14.8416C18.1419 14.8913 18.9857 15.069 19.4331 15.678C20.0109 16.4643 19.9907 18.2295 19.9907 18.2295C19.9907 18.2295 20.3229 23.0933 19.2153 23.6971C18.4551 24.1116 17.4126 23.2657 15.1739 19.3976C14.0273 17.4166 13.1613 15.226 13.1613 15.226C13.1613 15.226 12.9947 14.8172 12.6966 14.5979C12.3353 14.3323 11.8302 14.2483 11.8302 14.2483L6.47195 14.283C6.47195 14.283 5.66754 14.3058 5.37269 14.6557C5.10951 14.967 5.35164 15.6102 5.35164 15.6102C5.35164 15.6102 9.54623 25.4245 14.296 30.3701C18.6524 34.9058 23.5978 34.6078 23.5978 34.6078Z" fill="white"/>
</svg>
